<svg width="44" height="28" viewBox="0 0 44 28" fill="none" xmlns="http://www.w3.org/2000/svg">
<path fill-rule="evenodd" clip-rule="evenodd" d="M10.6528 27.9745C10.7053 27.9836 10.7588 27.9921 10.8134 28C10.7349 27.9935 10.6569 27.9867 10.5793 27.9794C10.37 27.9929 10.1587 27.9997 9.9459 27.9997C7.25913 27.9997 4.8317 26.9137 3.09747 25.1659C0.179045 22.6236 -0.570802 18.6824 0.403275 14.4242C1.95604 7.63636 10.3797 0.750354 19.4884 0C18.9057 0.4589 18.3374 0.895606 17.7872 1.31839C14.4395 3.89077 11.7624 5.94789 10.5893 9.35389C15.5595 9.67753 19.4885 13.7232 19.4885 18.6663C19.4885 23.5884 15.593 27.6206 10.6528 27.9745Z" fill="#01A4FF"/>
<path fill-rule="evenodd" clip-rule="evenodd" d="M35.1645 27.9744C35.217 27.9836 35.2706 27.9921 35.3251 28C35.2466 27.9935 35.1686 27.9867 35.0911 27.9794C34.8817 27.9929 34.6704 27.9997 34.4576 27.9997C31.7707 27.9997 29.3432 26.9136 27.609 25.1658C24.6907 22.6234 23.9409 18.6823 24.915 14.4242C26.4678 7.63636 34.8914 0.750354 44.0001 0C43.4174 0.4589 42.8491 0.895606 42.2989 1.31839C38.9512 3.89077 36.2741 5.94789 35.101 9.35389C40.0712 9.67754 44.0002 13.7232 44.0002 18.6663C44.0002 23.5884 40.1047 27.6206 35.1645 27.9744Z" fill="#01A4FF"/>
</svg>
