<svg width="175" height="84" viewBox="0 0 175 84" fill="none" xmlns="http://www.w3.org/2000/svg">
<rect width="175" height="70" rx="20" fill="#20C5FF"/>
<path d="M87.5 84L74.9426 62.25L100.057 62.25L87.5 84Z" fill="#20C5FF"/>
<path d="M41.9652 24.2749V26.2293H35.0177V31.8025H32.5522V26.2293H25.7083V24.2749H41.9652ZM27.6144 22.5552V14.7099H30.073V16.7541H37.5453V14.7099H40.0384V22.5552H27.6144ZM30.073 20.5663H37.5453V18.7086H30.073V20.5663ZM57.9935 14.0124V24.5787H55.5073V20.3798H52.731V18.3494H55.5073V14.0124H57.9935ZM42.8968 22.6105C45.7973 21.6436 47.1302 19.3301 47.1855 17.0994H43.6219V15.0967H53.2628V17.0994H49.72C49.7821 19.1644 51.0529 21.25 53.8084 22.1616L52.5791 24.1229C50.6178 23.4807 49.2711 22.1961 48.4907 20.6008C47.7172 22.4102 46.2946 23.8605 44.1882 24.5856L42.8968 22.6105ZM45.8112 28.3978C45.8042 26.2431 48.1316 24.9724 51.9161 24.9724C55.7145 24.9724 58.0349 26.2431 58.0418 28.3978C58.0349 30.5525 55.7145 31.8163 51.9161 31.8232C48.1316 31.8163 45.8042 30.5525 45.8112 28.3978ZM48.2904 28.3978C48.2835 29.413 49.5612 29.924 51.9161 29.9171C54.278 29.924 55.5625 29.413 55.5694 28.3978C55.5625 27.3757 54.278 26.8646 51.9161 26.8646C49.5612 26.8646 48.2835 27.3757 48.2904 28.3978ZM75.5687 14.0401V24.6547H73.2068V20.3384H71.7151V24.558H69.4016V14.3508H71.7151V18.3494H73.2068V14.0401H75.5687ZM60.9209 23.5912V15.5594H67.9996V23.5912H60.9209ZM63.2621 21.692H65.6723V17.4724H63.2621V21.692ZM63.2828 27.424V25.4351H75.5687V31.8025H73.0894V27.424H63.2828ZM97.1732 14.0401V27.0166H94.687V20.6492H91.7795V18.6395H94.687V14.0401H97.1732ZM82.0903 23.018C85.0254 22.0925 86.3582 19.7721 86.3651 17.5V17.2307H82.8016V15.2348H92.4425V17.2307H88.8997V17.5138C88.8997 19.5787 90.1635 21.7818 92.9881 22.7003L91.7588 24.6754C89.7906 24.0331 88.437 22.7348 87.6635 21.1326C86.8762 22.9075 85.4605 24.337 83.3679 25.0345L82.0903 23.018ZM85.3776 31.4917V25.884H87.8638V29.482H97.5944V31.4917H85.3776ZM115.715 22.8039V24.7928H109.03V27.8591H106.565V24.7928H99.4583V22.8039H115.715ZM101.364 31.4917V26.3122H103.851V29.482H113.927V31.4917H101.364ZM101.482 21.3536V14.7928H113.636V21.3536H101.482ZM103.92 19.413H111.185V16.7334H103.92V19.413ZM122.51 15.2072C125.342 15.2072 127.434 17.0235 127.448 19.5718C127.434 22.1271 125.342 23.9365 122.51 23.9365C119.713 23.9365 117.572 22.1271 117.579 19.5718C117.572 17.0235 119.713 15.2072 122.51 15.2072ZM116.84 26.1809C120.01 26.1809 124.402 26.1395 128.208 25.6077L128.394 27.4033C124.458 28.1699 120.238 28.2044 117.123 28.2044L116.84 26.1809ZM120.051 19.5718C120.051 20.9807 121.115 21.7818 122.51 21.7818C123.933 21.7818 125.01 20.9807 125.017 19.5718C125.01 18.1837 123.94 17.3619 122.51 17.3619C121.108 17.3619 120.051 18.1837 120.051 19.5718ZM129.216 31.8439V14.0124H131.695V31.8439H129.216ZM139.795 15.2072C142.627 15.2072 144.719 17.0235 144.733 19.5718C144.719 22.1271 142.627 23.9365 139.795 23.9365C136.998 23.9365 134.857 22.1271 134.864 19.5718C134.857 17.0235 136.998 15.2072 139.795 15.2072ZM134.125 26.1809C137.295 26.1809 141.687 26.1395 145.493 25.6077L145.679 27.4033C141.743 28.1699 137.523 28.2044 134.408 28.2044L134.125 26.1809ZM137.337 19.5718C137.337 20.9807 138.4 21.7818 139.795 21.7818C141.218 21.7818 142.295 20.9807 142.302 19.5718C142.295 18.1837 141.225 17.3619 139.795 17.3619C138.393 17.3619 137.337 18.1837 137.337 19.5718ZM146.501 31.8439V14.0124H148.98V31.8439H146.501ZM47.1222 39.0401V52.4724H44.6222V51.0497H41.2244V49.3508H44.6222V39.0401H47.1222ZM31.991 46.9199C35.2575 46.8923 39.6498 46.8508 43.4067 46.3743L43.5517 48.163C42.1498 48.3978 40.6926 48.5566 39.2562 48.6671V52.0442H36.7562V54.482H47.5158V56.4917H34.2631V51.1809H36.7562V48.8122C35.1608 48.8743 33.6415 48.8881 32.2879 48.8881L31.991 46.9199ZM33.31 42.8315C33.31 40.9392 35.1401 39.634 37.7783 39.6409C40.368 39.634 42.212 40.9392 42.2189 42.8315C42.212 44.7376 40.368 45.9669 37.7783 45.9669C35.1401 45.9669 33.31 44.7376 33.31 42.8315ZM35.6719 42.8315C35.665 43.6948 36.5144 44.1644 37.7783 44.1644C38.9799 44.1644 39.8432 43.6948 39.8501 42.8315C39.8432 41.9475 38.9799 41.4641 37.7783 41.4641C36.5144 41.4641 35.665 41.9475 35.6719 42.8315ZM58.8548 40.1381C58.8548 40.7528 58.8065 41.3467 58.7029 41.913H61.8452V39.0401H64.3314V49.5925H61.8452V47.6588H57.8051V45.663H61.8452V43.8674H58.1228C56.928 46.6229 54.3106 48.5566 50.4778 49.5649L49.5524 47.5829C53.5441 46.5539 55.7955 44.558 56.1822 42.1478H50.5537V40.1381H58.8548ZM52.1145 52.2652V50.3177H64.3314V56.7472H61.8452V52.2652H52.1145ZM81.2052 40.511V42.4931H79.7549V47.4309C80.4662 47.3757 81.1568 47.3066 81.8267 47.2238L82.0132 49.0539C78.4427 49.6685 74.3889 49.7307 71.4124 49.7238L71.143 47.7279C71.7508 47.7279 72.3999 47.721 73.0767 47.7141V42.4931H71.6195V40.511H81.2052ZM73.8157 56.4917V50.884H76.3019V54.482H85.9842V56.4917H73.8157ZM75.4731 47.6588C76.0947 47.645 76.7231 47.6174 77.3585 47.5898V42.4931H75.4731V47.6588ZM82.8488 52.1271V39.0401H85.3488V44.0401H87.7383V46.105H85.3488V52.1271H82.8488ZM104.747 47.6312V49.6133H88.5318V47.6312H95.3757V46.0497H90.4931V39.7376H102.827V41.6989H92.9862V44.047H103V46.0497H97.8757V47.6312H104.747ZM90.3273 52.8039V50.8425H102.814V56.8508H100.355V52.8039H90.3273ZM117.305 43.8605C117.305 46.7403 118.79 49.8135 121.766 51.0497L120.426 53.0041C118.327 52.1202 116.883 50.3522 116.082 48.1975C115.281 50.5387 113.81 52.4862 111.711 53.4461L110.295 51.4917C113.237 50.1727 114.763 46.8785 114.77 43.8605V42.7693H110.993V40.732H121.027V42.7693H117.305V43.8605ZM122.781 56.8025V39.0124H125.302V56.8025H122.781ZM142.767 39.0401V52.4724H140.267V51.0497H136.869V49.3508H140.267V39.0401H142.767ZM127.635 46.9199C130.902 46.8923 135.294 46.8508 139.051 46.3743L139.196 48.163C137.794 48.3978 136.337 48.5566 134.901 48.6671V52.0442H132.401V54.482H143.16V56.4917H129.908V51.1809H132.401V48.8122C130.805 48.8743 129.286 48.8881 127.932 48.8881L127.635 46.9199ZM128.955 42.8315C128.955 40.9392 130.785 39.634 133.423 39.6409C136.013 39.634 137.856 40.9392 137.863 42.8315C137.856 44.7376 136.013 45.9669 133.423 45.9669C130.785 45.9669 128.955 44.7376 128.955 42.8315ZM131.316 42.8315C131.31 43.6948 132.159 44.1644 133.423 44.1644C134.624 44.1644 135.488 43.6948 135.495 42.8315C135.488 41.9475 134.624 41.4641 133.423 41.4641C132.159 41.4641 131.31 41.9475 131.316 42.8315Z" fill="white"/>
</svg>
