<svg width="355" height="65" viewBox="0 0 355 65" fill="none" xmlns="http://www.w3.org/2000/svg">
<g clip-path="url(#clip0_740_1517)">
<path d="M0 32.4937C0 50.416 14.4147 65 32.1356 65C49.8641 65 64.2813 50.416 64.2813 32.4937C64.2813 14.5739 49.8641 7.62939e-06 32.1356 7.62939e-06C14.4147 7.62939e-06 0 14.5739 0 32.4937Z" fill="white"/>
<path d="M0.949219 32.4935C0.949219 15.1031 14.9456 0.957218 32.1381 0.957218C49.3405 0.957218 63.3294 15.1031 63.3294 32.4935C63.3294 49.8889 49.3405 64.0449 32.1381 64.0449C14.9456 64.0449 0.949219 49.8889 0.949219 32.4935Z" fill="#15366F"/>
<path d="M32.138 55.4863C19.5894 55.4863 9.41016 45.1954 9.41016 32.506C9.41016 29.4875 9.9981 26.4985 11.1404 23.7098C12.2827 20.9211 13.957 18.3872 16.0677 16.2528C18.1784 14.1184 20.6842 12.4253 23.442 11.2702C26.1998 10.1151 29.1556 9.52055 32.1406 9.52055C35.1256 9.52055 38.0813 10.1151 40.8391 11.2702C43.5969 12.4253 46.1027 14.1184 48.2134 16.2528C50.3241 18.3872 51.9984 20.9211 53.1407 23.7098C54.283 26.4985 54.871 29.4875 54.871 32.506C54.871 45.1954 44.6942 55.4863 32.138 55.4863Z" fill="white"/>
<path d="M5.84766 39.9613C5.84667 40.1964 5.93807 40.4223 6.10177 40.5892C6.26547 40.7562 6.48806 40.8505 6.72056 40.8516C6.95306 40.8526 7.17644 40.7601 7.34155 40.5946C7.50666 40.4291 7.59998 40.204 7.60097 39.9689C7.60147 39.8524 7.57928 39.7371 7.53568 39.6293C7.49208 39.5216 7.42792 39.4236 7.34686 39.3409C7.26581 39.2582 7.16944 39.1925 7.06327 39.1475C6.9571 39.1025 6.8432 39.0791 6.72808 39.0786C6.49557 39.0776 6.2722 39.17 6.10709 39.3355C5.94198 39.5011 5.84866 39.7262 5.84766 39.9613Z" fill="white"/>
<path d="M58.7576 40.0883C58.764 40.2102 58.7458 40.3322 58.704 40.4468C58.6623 40.5613 58.5979 40.6661 58.5149 40.7547C58.4318 40.8433 58.3317 40.9139 58.2208 40.9621C58.1099 41.0103 57.9904 41.0352 57.8696 41.0352C57.7489 41.0352 57.6294 41.0103 57.5185 40.9621C57.4076 40.9139 57.3075 40.8433 57.2244 40.7547C57.1414 40.6661 57.077 40.5613 57.0353 40.4468C56.9935 40.3322 56.9753 40.2102 56.9817 40.0883C56.9817 39.8502 57.0753 39.6218 57.2418 39.4534C57.4083 39.285 57.6342 39.1904 57.8696 39.1904C58.1051 39.1904 58.331 39.285 58.4975 39.4534C58.664 39.6218 58.7576 39.8502 58.7576 40.0883Z" fill="white"/>
<path d="M7.10266 21.9185C6.489 21.7235 5.9054 21.7514 5.41698 22.0097C4.88096 22.2959 4.47019 22.8304 4.24476 23.5598C4.02685 24.269 4.05691 24.9351 4.33994 25.4873C4.63548 26.0424 5.13463 26.458 5.73007 26.6448C6.8071 26.9867 8.1872 26.6321 8.68063 25.0415C8.78961 24.7296 8.83557 24.3987 8.81578 24.0685C8.79599 23.7383 8.71085 23.4154 8.56542 23.1191C8.25322 22.5397 7.72757 22.1083 7.10266 21.9185ZM8.39009 24.6844C8.077 25.6823 7.02251 26.1053 5.83026 25.7228C4.34996 25.2492 4.39505 24.3374 4.55034 23.8359C4.61021 23.641 4.70796 23.4602 4.83785 23.3041C4.96774 23.1479 5.12717 23.0196 5.30677 22.9266C5.77515 22.6835 6.39131 22.6581 7.03002 22.8633C7.68876 23.071 8.11958 23.3825 8.31995 23.7751C8.46044 24.0571 8.48563 24.3837 8.39009 24.6844Z" fill="white"/>
<path d="M13.274 16.1562L12.4599 15.3711L12.6202 15.2014C12.6202 15.2014 12.8958 15.3989 12.9909 15.4471C13.4343 15.6775 13.7699 15.4268 13.9302 15.2596C14.2583 14.9126 14.2082 14.5048 13.9953 14.2946C13.79 14.1021 13.537 13.9881 12.9659 14.0743L12.6253 14.1275C11.8463 14.2414 11.3554 14.1376 10.9822 13.7754C10.4887 13.3018 10.5388 12.5495 11.1149 11.9391C11.5983 11.4275 11.8713 11.392 11.8713 11.392L12.5702 12.0733L12.3998 12.2582C12.3998 12.2582 12.232 12.0379 11.9365 12.01C11.7912 11.9948 11.5733 12.0075 11.3353 12.2582C11.0648 12.5444 11.0448 12.8788 11.2877 13.1118C11.453 13.2714 11.6509 13.3321 12.2796 13.2308L12.4825 13.1979C13.3842 13.0637 13.8526 13.1523 14.2684 13.5525C14.4226 13.6985 14.5374 13.8819 14.6018 14.0854C14.6663 14.2889 14.6782 14.5056 14.6366 14.7151C14.5658 15.0477 14.3993 15.3517 14.1581 15.5889C13.9127 15.8472 13.527 16.1512 13.274 16.1562Z" fill="white"/>
<path d="M51.8153 17.2113L52.7445 16.5655L52.8748 16.7656C52.8748 16.7656 52.6268 16.996 52.5617 17.0796C52.2436 17.4697 52.4164 17.8521 52.5467 18.0446C52.8147 18.4423 53.2204 18.4803 53.4634 18.308C53.6988 18.1485 53.8566 17.9205 53.8917 17.3354L53.9142 16.9935C53.9643 16.1957 54.1697 15.7322 54.593 15.4383C55.1566 15.0483 55.8729 15.256 56.3413 15.9525C56.7371 16.5351 56.717 16.8111 56.717 16.8111L55.908 17.3684L55.7677 17.1556C55.7677 17.1556 56.0157 17.0366 56.1059 16.7529C56.1485 16.611 56.186 16.3907 55.9907 16.102C55.7677 15.7777 55.4496 15.6891 55.1766 15.8765C54.9863 16.0082 54.8836 16.1906 54.8485 16.8339L54.841 17.0416C54.7859 17.9661 54.598 18.4094 54.1271 18.7336C53.9544 18.8573 53.753 18.934 53.5424 18.9562C53.3318 18.9784 53.1191 18.9453 52.9249 18.8602C52.6178 18.719 52.3589 18.4889 52.181 18.1991C51.9831 17.9079 51.7677 17.4621 51.8153 17.2113Z" fill="white"/>
<path d="M16.6959 10.2106C16.9339 10.0283 16.999 10.1068 17.1869 10.3575L17.3547 10.2309L16.6233 9.24057L16.4555 9.36974C16.6408 9.62049 16.6959 9.70408 16.4555 9.88644L15.7592 10.4107L14.855 9.18484L15.5363 8.67068C15.8594 8.42753 16.0021 8.5947 16.1825 8.84291L16.3503 8.71374L15.7992 7.96402L13.4648 9.7294L13.5901 9.90164C13.7479 9.78006 14.0409 9.52171 14.2914 9.86364L16.2401 12.4978C16.5306 12.8904 16.3854 12.9562 16.1098 13.1614L16.2501 13.3438L18.6321 11.5454L18.026 10.7324L17.8581 10.8616C18.1211 11.2212 18.0735 11.4517 17.8306 11.6366L17.0817 12.204L16.0021 10.74L15.9996 10.7349L16.6959 10.2106Z" fill="white"/>
<path d="M47.7047 10.4603C47.9527 10.6275 47.9026 10.7136 47.7273 10.9745L47.9026 11.0986L48.5839 10.0677L48.4085 9.94869C48.2357 10.2121 48.1731 10.2906 47.9251 10.126L47.2038 9.63462L48.0479 8.36314L48.7567 8.84184C49.0898 9.0698 48.9821 9.25976 48.8118 9.51304L48.9846 9.63462L49.4956 8.85704L47.081 7.2183L46.9608 7.39813C47.1236 7.50451 47.4592 7.69954 47.2288 8.0516L45.4179 10.7845C45.1499 11.1923 45.0397 11.0758 44.7566 10.8833L44.6289 11.0758L47.1011 12.75L47.6571 11.9066L47.4818 11.7799C47.2338 12.1548 47.0009 12.1852 46.7479 12.0155L45.9739 11.4912L46.9808 9.97402L46.9833 9.96895L47.7047 10.4603Z" fill="white"/>
<path d="M19.2061 6.65183C19.0734 6.38841 19.1961 6.31496 19.5167 6.15033L19.419 5.96037L17.7734 6.8114L17.8686 7.00136C17.8686 7.00136 18.2869 6.70249 18.4597 7.03935L20.0603 10.1927C20.193 10.4561 20.0628 10.5321 19.7447 10.6993L19.8423 10.8867L21.6132 9.96477L21.5205 9.77987C21.255 9.91665 20.9645 10.1117 20.8092 9.80267L19.2061 6.65183Z" fill="white"/>
<path d="M28.7296 5.5442L28.3689 3.71803C28.3138 3.42929 28.4465 3.39636 28.7997 3.32291L28.7571 3.11522L27.1817 3.43435L27.2217 3.64205C27.2217 3.64205 27.7077 3.46475 27.7778 3.83961C27.7953 3.91306 28.1635 5.76962 28.1635 5.76962C28.2862 6.3851 28.3589 6.88153 28.1234 7.24373C27.9552 7.48336 27.7023 7.64841 27.4171 7.7047C27.1677 7.76514 26.9051 7.73183 26.6782 7.61099C26.4202 7.47422 26.1522 7.21587 25.9694 6.29898L25.5686 4.28792C25.5135 4.00171 25.6488 3.96118 26.0044 3.89026L25.9594 3.68004L24.1484 4.04983L24.1885 4.25752C24.1885 4.25752 24.6744 4.08276 24.7471 4.45508L25.1553 6.50161C25.3006 7.25133 25.5686 7.71483 25.9919 7.97065C26.5254 8.29232 27.1266 8.17074 27.382 8.12262C27.833 8.04975 28.24 7.8073 28.5217 7.44382C28.93 6.91193 28.8623 6.2154 28.7296 5.5442Z" fill="white"/>
<path d="M39.2295 4.41693C39.2946 4.12565 39.4349 4.15098 39.7831 4.23203L39.8281 4.02687L38.0297 3.60136L37.9822 3.80905C37.9822 3.80905 38.4931 3.84957 38.4105 4.22443L37.619 7.67668C37.5538 7.96289 37.4061 7.93756 37.0554 7.85651L37.0078 8.0642L38.9515 8.51758L38.9991 8.31242C38.706 8.24657 38.3629 8.20604 38.4405 7.86917L39.2295 4.41693Z" fill="white"/>
<path d="M58.0768 20.2238C58.3373 20.0946 58.4075 20.2137 58.5653 20.5404L58.7581 20.4467L57.9416 18.77L57.7537 18.8612C57.7537 18.8612 58.0468 19.2892 57.7061 19.4589L54.5627 21.0242C54.2972 21.1508 54.2271 21.0191 54.0668 20.6949L53.8789 20.7912L54.7556 22.5996L54.9434 22.5034C54.8107 22.2349 54.6228 21.9385 54.9309 21.7891C55.239 21.6295 58.0768 20.2238 58.0768 20.2238Z" fill="white"/>
<path d="M59.5872 22.3808L58.6655 22.5176L58.7306 22.7506C59.0362 22.705 59.2591 22.6873 59.3718 23.0773L59.6223 23.941L56.1557 24.9769C55.8752 25.0605 55.8251 24.9162 55.7249 24.5692L55.5195 24.6274L56.0856 26.5625L56.286 26.5068C56.2008 26.2155 56.0631 25.8888 56.3937 25.7925L59.8627 24.7566L60.1157 25.6178C60.2284 26.0053 60.033 26.1117 59.7525 26.2434L59.8227 26.4764L60.6693 26.0863L59.5872 22.3808Z" fill="white"/>
<path d="M53.2561 12.5173C53.1784 12.1121 52.9054 11.798 52.6499 11.5447L51.4101 10.2986L51.2648 10.4531C51.2648 10.4531 51.6756 10.7596 51.4126 11.0331L48.9479 13.5507C48.74 13.7584 48.6298 13.6596 48.3743 13.4038L48.2266 13.5583L49.6442 14.9717L49.787 14.8273C49.5766 14.6145 49.3036 14.3992 49.544 14.1485L50.4783 13.1911L50.859 13.5735L50.6937 14.5993C50.6061 15.1819 50.576 15.5339 50.6587 15.81C50.7138 15.9898 50.8089 16.1241 51.0369 16.3571L51.4652 16.7852L51.6004 16.6408L51.5002 16.5192C51.4501 16.4407 51.3199 16.2431 51.3249 15.7898C51.3324 15.3516 51.395 14.7994 51.4677 14.1029L51.5002 13.8192C52.184 13.8775 52.6274 13.7559 52.968 13.4089C53.0813 13.2932 53.1664 13.1524 53.2164 12.9976C53.2664 12.8428 53.28 12.6784 53.2561 12.5173ZM52.2066 13.067C51.8359 13.4418 51.5278 13.4621 51.3775 13.4368C51.2623 13.4216 51.1972 13.3886 51.0369 13.2265L50.7388 12.9277L52.1164 11.5245L52.3143 11.7246C52.5422 11.95 52.7777 12.4793 52.2066 13.067Z" fill="white"/>
<path d="M6.06572 29.5386C5.87787 29.5184 5.70254 29.5057 5.50967 29.4044C5.27924 29.2778 3.99181 28.333 3.77139 28.1152C3.66585 28.0288 3.58178 27.9187 3.52593 27.7935C3.49343 27.7169 3.47885 27.6337 3.48335 27.5504L3.49838 27.3883L3.29049 27.3655L3.15273 28.8674L3.36813 28.8852L3.38066 28.7332C3.38316 28.6876 3.43075 28.6547 3.48335 28.6623C3.58074 28.6764 3.67391 28.7118 3.75637 28.7661C3.84403 28.8143 5.18907 29.7413 5.18907 29.7413C5.18907 29.7413 3.59857 30.4885 3.4558 30.5391C3.39818 30.5661 3.33626 30.5824 3.27295 30.5872C3.25292 30.5847 3.22787 30.572 3.22536 30.5416L3.21785 30.5087C3.21284 30.4733 3.22536 30.3745 3.22536 30.3745L3.01747 30.3491L2.86719 32.0461L3.07257 32.0664C3.07257 32.0664 3.0876 31.8334 3.18028 31.6941C3.30121 31.5458 3.45245 31.4257 3.62361 31.342C3.94923 31.1597 5.29677 30.4935 5.38444 30.4657C5.56227 30.4049 5.68751 30.3618 5.98808 30.3897C5.98808 30.3897 6.59172 30.4429 6.96743 30.4809C7.34313 30.5138 7.33312 30.724 7.30807 31.0153L7.50344 31.0355L7.68378 29.0371L7.49342 29.0194C7.46336 29.3512 7.46336 29.6678 7.03004 29.6298C6.70885 29.5968 6.3874 29.5665 6.06572 29.5386Z" fill="white"/>
<path d="M58.2582 30.4696C58.4467 30.436 58.6403 30.4464 58.8243 30.5C59.0772 30.576 60.5175 31.2573 60.7704 31.4321C60.9383 31.5435 61.0059 31.5942 61.071 31.7031C61.1189 31.7713 61.149 31.8506 61.1587 31.9336L61.1762 32.0957L61.3841 32.0729L61.2413 30.576L61.0259 30.5937L61.0384 30.7508C61.046 30.7938 61.0059 30.8369 60.9558 30.8394C60.8577 30.8437 60.7598 30.8282 60.6677 30.7938C60.5726 30.7609 59.0772 30.1049 59.0772 30.1049C59.0772 30.1049 60.4974 29.069 60.6327 28.9905C60.6627 28.9702 60.7579 28.9145 60.803 28.9094C60.8149 28.9077 60.8269 28.9103 60.8371 28.9168C60.8472 28.9233 60.8546 28.9333 60.8581 28.9449L60.8681 28.9727C60.8832 29.0133 60.8907 29.112 60.8907 29.112L61.0961 29.0892L60.9282 27.3973L60.7229 27.4201C60.7229 27.4201 60.7529 27.6557 60.6853 27.8076C60.5929 27.9743 60.4676 28.12 60.3171 28.2357C59.8028 28.6442 59.2809 29.0428 58.7516 29.4312C58.5888 29.5223 58.4736 29.5907 58.173 29.6186L57.1962 29.7148C56.818 29.7579 56.7904 29.5477 56.7629 29.2539L56.5625 29.2767L56.7604 31.27L56.9482 31.2497C56.9157 30.9154 56.8581 30.6089 57.2939 30.5684L58.2582 30.4696Z" fill="white"/>
<path d="M12.1319 17.7998L11.9741 18.0581L7.63091 19.0485L9.75241 20.3782C10.2033 20.6568 10.3535 20.2997 10.5088 20.0464L10.6892 20.1629L9.81253 21.6016L9.62968 21.4901C9.76744 21.2596 9.93526 21.0418 9.50695 20.7784L6.23828 18.7369L6.38856 18.4938L10.7919 17.5161L8.59022 16.1382C8.19948 15.8976 8.02415 16.2193 7.90643 16.4143L7.72609 16.3029L8.54013 14.9757L8.72047 15.0897C8.59022 15.3024 8.44495 15.5 8.83568 15.7431C9.22642 15.9837 12.1319 17.7998 12.1319 17.7998Z" fill="white"/>
<path d="M35.0241 7.75781L34.721 7.74008L31.808 4.33343L31.6552 6.85359C31.6227 7.38549 32.0009 7.35763 32.299 7.37282L32.2839 7.58811L30.6133 7.48933L30.6258 7.26898C30.8888 7.28417 31.1593 7.3323 31.1894 6.8232L31.4223 2.9505L31.7003 2.96823L34.6359 6.42808L34.7937 3.81926C34.8187 3.35322 34.458 3.35069 34.2326 3.33803L34.2426 3.12274L35.783 3.21898L35.7705 3.43681C35.5251 3.42161 35.2871 3.38362 35.2595 3.84459L35.0241 7.75781Z" fill="white"/>
<path d="M45.8103 6.61692L45.8629 6.40163L44.5153 5.80641L44.4277 6.00651L44.5855 6.07489C44.6381 6.09515 44.6781 6.14328 44.6656 6.1914C44.6272 6.28869 44.5702 6.37735 44.4978 6.45228L43.2429 7.73136L42.4314 8.54693C42.4339 8.43042 42.5141 6.79168 42.5516 6.07996L42.5842 5.45435C42.5892 5.41889 42.5842 5.33277 42.6268 5.29225C42.6393 5.27452 42.6919 5.24412 42.7695 5.27705L42.9273 5.34797L43.0125 5.14788L41.442 4.45388L41.3594 4.64384C41.3594 4.64384 41.5773 4.73503 41.6574 4.85913C41.7284 5.01143 41.7561 5.18066 41.7376 5.34797L41.67 9.60312L41.8478 9.68164L44.2373 7.45528L45.0939 6.67011C45.0939 6.67011 45.377 6.41936 45.6625 6.54853L45.8103 6.61692Z" fill="white"/>
<path d="M33.6123 57.28V58.6755H33.2442V57.28H32.3099V57.3914C32.4001 57.3914 32.4902 57.5535 32.4902 57.7257V60.7423H30.5491V58.0423H31.839V57.4066H29.5547V57.5206C29.6499 57.5206 29.74 57.6776 29.74 57.8524V61.3806H32.4902V62.3887H33.2442V59.3113H33.6123V62.3887H34.4214V57.28H33.6123Z" fill="white"/>
<path d="M55.4593 49.5673L52.3509 46.9585H52.3459L49.8086 50.0536C49.8487 50.0815 50.2569 50.4234 50.292 50.4589C50.3246 50.4133 52.3158 47.9919 52.3158 47.9919L54.9408 50.1955L54.5475 50.6818C54.5475 50.6818 53.2175 49.5699 53.1775 49.5319C53.0132 49.7346 52.8479 49.9364 52.6815 50.1372L54.0516 51.2846L53.7836 51.6037L52.416 50.4589L51.8424 51.1605L51.9251 51.2339H51.9276C51.9877 51.1579 52.1706 51.1934 52.3008 51.3023L53.3277 52.1635C53.3277 52.1635 52.7817 52.8321 52.7466 52.8676C52.7867 52.9005 53.195 53.2475 53.2326 53.2754C53.2676 53.2349 56.2232 49.6306 56.2608 49.5927L55.7723 49.1823C55.6711 49.3132 55.5667 49.4416 55.4593 49.5673Z" fill="white"/>
<path d="M22.5685 55.3527L20.457 60.0004C20.5021 60.0207 21.1483 60.3221 21.1934 60.3398C21.2135 60.2892 23.2824 55.7478 23.3074 55.6946H23.3024L22.5685 55.3527Z" fill="white"/>
<path d="M21.4501 54.8331C21.4351 54.8609 21.4175 54.9065 21.4 54.9369H21.405C21.4902 54.9775 21.5027 55.1624 21.4325 55.3194L21.0393 56.1805C21.0393 56.1805 20.3179 55.8487 20.2704 55.8234C20.2478 55.869 20.0299 56.3578 20.0074 56.4009L20.7763 56.7606L19.5039 59.5568C19.549 59.5745 20.1126 59.838 20.1551 59.8633C20.1777 59.8101 22.2441 55.2637 22.2691 55.2155L22.2666 55.213L21.4501 54.8331Z" fill="white"/>
<path d="M19.3372 56.2629L19.3122 56.2123L19.3297 56.1971C19.8958 55.764 20.3116 55.2346 20.6096 54.5837C20.2547 54.4167 19.899 54.2512 19.5426 54.0872L19.4975 54.1886C19.5076 54.1987 19.7054 54.3507 19.5351 54.728V54.7331C19.5226 54.7559 18.9515 56.0147 17.2383 56.5821L17.4311 57.0709C17.4387 57.0709 18.0047 57.0025 18.7787 56.5593L18.8062 56.5441L18.8188 56.5694C18.934 56.81 19.1068 57.1722 19.2746 58.1094L19.9384 57.7295C19.8457 57.3369 19.6353 56.8176 19.3372 56.2629Z" fill="white"/>
<path d="M42.5983 59.3496L45.6516 57.8679L46.12 58.8608L46.8539 58.5087L46.11 56.9358C46.0574 56.9612 42.3729 58.7544 42.3203 58.7747C42.3454 58.8202 42.5733 59.3066 42.5983 59.3496Z" fill="white"/>
<path d="M44.6662 53.9015C44.6211 53.9243 43.8146 54.3144 43.7695 54.3397C43.7872 54.373 43.8039 54.4067 43.8196 54.441C43.9048 54.398 44.0551 54.5043 44.1252 54.6588L45.1947 56.9004L45.9211 56.5458L45.5228 55.7074L46.2442 55.3604L45.9962 54.8387L45.2824 55.1882C45.2824 55.1882 44.6913 53.9471 44.6662 53.9015Z" fill="white"/>
<path d="M41.3407 57.4236C41.6437 58.0618 42.4728 58.2999 43.1892 57.9554C43.9055 57.6084 44.2386 56.803 43.9381 56.1647C43.8605 56.0066 43.7497 55.8676 43.6134 55.7573C43.4771 55.6471 43.3186 55.5683 43.1491 55.5265C43.4647 55.377 43.6801 55.2681 43.6951 55.2605C43.6701 55.2175 43.4446 54.7337 43.4246 54.6881L42.4002 55.1845C42.4002 55.1845 42.2349 54.8401 42.2173 54.7945C42.2173 54.7945 41.3657 55.2023 41.3206 55.2276C41.3306 55.258 41.3532 55.301 41.3657 55.334V55.3289C41.4409 55.296 41.5686 55.377 41.6487 55.5113L41.6663 55.5417L40.5742 56.071L40.8472 56.646L41.3407 56.4054C41.2682 56.5651 41.2307 56.7387 41.2307 56.9145C41.2307 57.0902 41.2682 57.2638 41.3407 57.4236ZM42.9562 57.4641C42.782 57.5434 42.5839 57.5502 42.4048 57.4829C42.2257 57.4155 42.0801 57.2796 41.9994 57.1044C41.9146 56.9312 41.9007 56.7312 41.9607 56.5477C42.0207 56.3643 42.1498 56.2121 42.32 56.1242C42.4948 56.0442 42.6938 56.0374 42.8735 56.1053C43.0533 56.1732 43.1991 56.3102 43.2793 56.4864C43.3645 56.6594 43.3784 56.8595 43.3178 57.0428C43.2572 57.2261 43.1272 57.3776 42.9562 57.4641Z" fill="white"/>
<path d="M10.2801 49.9233C10.2801 49.9233 9.66139 49.2039 9.62382 49.166L9.54116 49.2394C9.60127 49.3129 9.54116 49.4851 9.41593 49.5991C9.41593 49.5991 8.54678 50.3589 8.51172 50.3969C8.54678 50.4349 11.019 53.3021 11.054 53.3477C11.0916 53.3097 11.4948 52.9576 11.5324 52.9272L9.52112 50.5945L10.2801 49.9233Z" fill="white"/>
<path d="M11.8167 50.1027L12.498 50.8955L11.5111 51.7693L12.0421 52.3848C12.0847 52.3518 14.7522 49.9938 14.7923 49.9608L14.1386 49.201C14.1092 49.2243 14.0816 49.2497 14.0559 49.277C14.116 49.3479 14.0559 49.5227 13.9257 49.6366L13.7829 49.7633L13.0315 48.8996C13.0508 48.6821 13.0264 48.463 12.9597 48.2553C12.8929 48.0477 12.7853 47.8558 12.6432 47.6914C12.0897 47.0557 11.1705 46.9544 10.5894 47.4685C10.0083 47.9751 9.98321 48.9148 10.5342 49.5505C10.6912 49.7366 10.8887 49.8834 11.1112 49.9792C11.3338 50.075 11.5752 50.1173 11.8167 50.1027ZM13.307 50.1837L12.9739 50.475L12.4604 49.8773C12.5842 49.7967 12.6914 49.6926 12.776 49.5708C13.0039 49.8393 13.307 50.1837 13.307 50.1837ZM11.0953 48.0486C11.4334 47.7522 11.9244 47.7649 12.1999 48.0815C12.4729 48.3981 12.4203 48.8996 12.0797 49.1959C11.744 49.4923 11.2456 49.4796 10.9751 49.163C10.7021 48.8464 10.7547 48.3474 11.0953 48.0486Z" fill="white"/>
<path d="M32.1382 21.4573C31.252 21.4573 30.4021 21.8132 29.7755 22.4469C29.1489 23.0805 28.7969 23.9399 28.7969 24.8361C28.7969 25.7322 29.1489 26.5916 29.7755 27.2252C30.4021 27.8589 31.252 28.2148 32.1382 28.2148C33.0244 28.2148 33.8742 27.8589 34.5008 27.2252C35.1275 26.5916 35.4795 25.7322 35.4795 24.8361C35.4795 23.9399 35.1275 23.0805 34.5008 22.4469C33.8742 21.8132 33.0244 21.4573 32.1382 21.4573Z" fill="#15366F"/>
<path d="M24.0703 49.0773C26.1643 50.9162 28.8017 52.6689 32.1405 54.2266C35.4818 52.6689 38.1193 50.9162 40.2133 49.0748L32.1405 40.8963L24.0703 49.0773Z" fill="#15366F"/>
<path d="M48.5716 29.6101V18.334C48.5716 18.334 39.0637 18.643 32.1431 13.2607C25.2226 18.643 15.7146 18.334 15.7146 18.334V29.6101C15.7146 29.6101 15.6495 32.029 16.0678 34.6758C26.6959 32.7034 37.5903 32.7034 48.2184 34.6758C48.6342 32.029 48.5716 29.6101 48.5716 29.6101ZM32.1406 31.4287C31.2834 31.4294 30.4345 31.2593 29.6423 30.9282C28.8501 30.5971 28.1302 30.1115 27.5236 29.499C26.917 28.8866 26.4357 28.1593 26.1071 27.3587C25.7784 26.5582 25.6089 25.7 25.6083 24.8332C25.6103 23.0831 26.2995 21.4054 27.5245 20.169C28.7495 18.9327 30.4099 18.2389 32.1406 18.2403C33.0077 18.2231 33.8695 18.3809 34.6756 18.7046C35.4816 19.0283 36.2157 19.5113 36.835 20.1253C37.4542 20.7393 37.9461 21.4721 38.2819 22.2807C38.6178 23.0893 38.7907 23.9575 38.7907 24.8345C38.7907 25.7115 38.6178 26.5797 38.2819 27.3883C37.9461 28.1969 37.4542 28.9296 36.835 29.5437C36.2157 30.1577 35.4816 30.6407 34.6756 30.9643C33.8695 31.288 33.0077 31.4459 32.1406 31.4287Z" fill="#15366F"/>
<path d="M16.2344 35.6215C16.3045 35.9735 16.3847 36.3231 16.4748 36.6701C17.2463 39.6461 18.6264 43.0857 21.4392 46.4062L32.1394 35.5632L42.8396 46.4062C45.6524 43.0832 47.035 39.6461 47.804 36.6701C47.8966 36.3231 47.9768 35.9735 48.0469 35.6215C42.7992 34.6473 37.4748 34.1581 32.1394 34.16C26.6991 34.16 21.3841 34.6641 16.2344 35.6215Z" fill="#15366F"/>
<path d="M20.9883 27.4746H22.5262C22.5788 27.4746 22.6214 27.429 22.6214 27.3758V24.187C22.6217 24.1743 22.6195 24.1616 22.6148 24.1498C22.6102 24.1379 22.6032 24.1272 22.5943 24.1182C22.5854 24.1092 22.5747 24.1021 22.563 24.0974C22.5513 24.0927 22.5388 24.0904 22.5262 24.0908H21.2789C21.1763 24.0907 21.078 24.1318 21.0052 24.2048C20.9325 24.2779 20.8913 24.3771 20.8906 24.4808V27.3758C20.8913 27.4018 20.9018 27.4266 20.9199 27.445C20.9381 27.4634 20.9626 27.474 20.9883 27.4746Z" fill="white"/>
<path d="M18.8569 27.4746H20.3948C20.4474 27.4746 20.4875 27.429 20.4875 27.3758V24.4808C20.4878 24.4297 20.4782 24.379 20.4591 24.3317C20.44 24.2844 20.4118 24.2414 20.3762 24.2051C20.3405 24.1689 20.2982 24.1401 20.2515 24.1205C20.2049 24.1009 20.1548 24.0907 20.1043 24.0908H18.8569C18.8443 24.0904 18.8318 24.0927 18.8201 24.0974C18.8084 24.1021 18.7978 24.1092 18.7889 24.1182C18.78 24.1272 18.773 24.1379 18.7683 24.1498C18.7636 24.1616 18.7614 24.1743 18.7618 24.187V27.3758C18.7618 27.429 18.8018 27.4746 18.8569 27.4746Z" fill="white"/>
<path d="M23.3344 24.6452H23.0088V27.8112H21.0626L21.0601 27.8441C21.0519 27.9377 21.0093 28.0248 20.9406 28.0882C20.872 28.1515 20.7823 28.1864 20.6894 28.1861C20.5964 28.1859 20.5067 28.1509 20.4377 28.0877C20.3688 28.0245 20.3255 27.9377 20.3162 27.8441L20.3137 27.8112H18.37V24.6452H18.0444C18.0192 24.6452 17.9949 24.6553 17.9771 24.6734C17.9592 24.6914 17.9492 24.7159 17.9492 24.7414V28.1C17.9492 28.1531 17.9918 28.1962 18.0444 28.1962H19.9931C20.0615 28.3225 20.1622 28.4278 20.2847 28.5012C20.4072 28.5746 20.547 28.6133 20.6894 28.6133C20.8318 28.6133 20.9715 28.5746 21.094 28.5012C21.2165 28.4278 21.3173 28.3225 21.3857 28.1962H23.3344C23.387 28.1962 23.4296 28.1531 23.4296 28.1V24.7414C23.4296 24.7288 23.4271 24.7163 23.4223 24.7046C23.4175 24.6929 23.4105 24.6823 23.4017 24.6734C23.3928 24.6644 23.3824 24.6573 23.3708 24.6525C23.3593 24.6477 23.3469 24.6452 23.3344 24.6452Z" fill="white"/>
<path d="M44.062 27.1273H42.7921C42.7244 27.1273 42.6769 27.1729 42.6844 27.2387L43.1002 29.921C43.1067 29.9752 43.1324 30.0253 43.1724 30.062C43.2124 30.0987 43.2641 30.1197 43.3181 30.1211H43.536C43.6512 30.1211 43.7389 30.0274 43.7564 29.921L44.1697 27.2387C44.1797 27.1729 44.1296 27.1273 44.062 27.1273Z" fill="white"/>
<path d="M44.2439 25.9484C44.572 25.6571 45.3335 24.8137 45.2508 24.3426C45.1657 23.8284 43.748 23.0913 43.6653 22.5316C43.6409 22.2282 43.7054 21.9243 43.8507 21.6578C43.8682 21.6071 43.8181 21.5944 43.7655 21.64C43.738 21.6603 42.5833 22.5341 42.5733 23.1369C42.5708 23.375 42.7361 23.6384 43.0216 23.8765C43.252 24.0716 43.5551 24.2463 43.7906 24.4819C43.9085 24.5846 43.9982 24.7163 44.0511 24.8643C44.1663 25.1885 43.8432 25.7052 43.6403 25.9484H43.1769C43.3894 25.71 43.5491 25.4285 43.6453 25.1227C43.8331 24.4008 42.0473 24.2185 42.3178 23.1293C42.3328 23.0888 42.2827 23.0711 42.2426 23.104C42.2226 23.1192 41.5363 23.798 41.5313 24.2666C41.5238 24.6744 42.3428 25.0518 42.7286 25.6014C42.7937 25.7179 42.7762 25.8395 42.7261 25.9484H41.9972C41.9972 25.9484 41.8269 25.9256 41.8995 26.0927L42.0949 26.7158C42.0949 26.7158 42.1299 26.7969 42.2502 26.7969H44.5946C44.7148 26.7969 44.7524 26.7158 44.7524 26.7158L44.9578 26.0877C45.0079 25.9357 44.84 25.9484 44.84 25.9484H44.2439Z" fill="white"/>
<path d="M28.9528 47.2553C28.835 47.3414 28.2314 47.7441 28.2139 47.7568C28.1975 47.7639 28.1834 47.7755 28.1732 47.7902C28.163 47.805 28.1572 47.8224 28.1562 47.8404C28.1562 47.886 28.1888 47.9214 28.2264 47.9214L28.284 47.9037L28.3842 47.8606C28.4568 47.8277 28.6071 47.7593 28.6397 47.7568C28.6442 47.7793 28.6468 47.8022 28.6472 47.8252V48.7699L28.6372 49.4994C28.6246 49.5982 28.6121 49.6159 28.5445 49.6311L28.2965 49.6488C28.2589 49.6488 28.2264 49.6817 28.2264 49.7299C28.2264 49.7653 28.2414 49.8008 28.3266 49.8008L28.7148 49.7982H29.0104L29.4111 49.8008C29.4938 49.8008 29.5063 49.7653 29.5063 49.7299C29.5063 49.6817 29.4712 49.6488 29.4362 49.6488L29.2333 49.6311C29.1657 49.6184 29.1481 49.5982 29.1431 49.4994L29.1281 48.7699V48.1671L29.1431 47.3642V47.3186C29.1431 47.2148 29.0855 47.2072 29.0655 47.2072L28.9528 47.2553Z" fill="white"/>
<path d="M30.3646 49.1455C30.3646 48.8289 30.5675 48.6566 30.6977 48.5705C30.9657 48.7276 31.1962 48.8719 31.1962 49.1607C31.1962 49.4266 31.0309 49.6065 30.7854 49.6065C30.5475 49.6065 30.3646 49.4064 30.3646 49.1455ZM30.0315 47.8411C30.0315 48.145 30.2569 48.3248 30.4548 48.4388C30.1116 48.5984 29.9062 48.8618 29.9062 49.1632C29.9062 49.5913 30.2444 49.8496 30.7629 49.8496C31.3565 49.8496 31.6646 49.4672 31.6646 49.0847C31.6646 48.6896 31.3565 48.4844 31.1311 48.3552C31.2738 48.2869 31.5544 48.102 31.5544 47.755C31.5544 47.4156 31.2713 47.2079 30.848 47.2079C30.2494 47.2079 30.0315 47.5878 30.0315 47.8411ZM30.4623 47.7752C30.4623 47.6182 30.5525 47.4358 30.808 47.4358C30.9582 47.4358 31.116 47.5447 31.116 47.7828C31.116 48.0361 30.9733 48.1653 30.848 48.221C30.56 48.0589 30.4623 47.9424 30.4623 47.7752Z" fill="white"/>
<path d="M32.5951 49.1455C32.5951 48.8289 32.798 48.6566 32.9257 48.5705C33.1987 48.7276 33.4267 48.8719 33.4267 49.1607C33.4267 49.4266 33.2588 49.6065 33.0184 49.6065C32.7829 49.6065 32.5951 49.4064 32.5951 49.1455ZM32.2645 47.8411C32.2645 48.145 32.4874 48.3248 32.6853 48.4388C32.3421 48.5984 32.1367 48.8618 32.1367 49.1632C32.1367 49.5913 32.4749 49.8496 32.9958 49.8496C33.587 49.8496 33.895 49.4672 33.895 49.0847C33.895 48.6896 33.5794 48.4844 33.359 48.3552C33.5118 48.2869 33.7823 48.102 33.7823 47.755C33.7823 47.4156 33.5018 47.2079 33.0735 47.2079C32.4799 47.2079 32.2645 47.5878 32.2645 47.8411ZM32.6903 47.7752C32.6903 47.6182 32.7829 47.4358 33.0384 47.4358C33.1912 47.4358 33.3465 47.5447 33.3465 47.7828C33.3465 48.0361 33.2062 48.1653 33.0785 48.221C32.798 48.0589 32.6903 47.9424 32.6903 47.7752Z" fill="white"/>
<path d="M35.6963 47.2459L35.4884 47.2611H34.6994C34.6118 47.2611 34.5967 47.3142 34.5967 47.3421L34.5166 48.2033C34.5166 48.2413 34.5216 48.3046 34.6168 48.3198C34.8347 48.3476 35.3932 48.5376 35.3932 49.0492C35.3932 49.4545 35.1302 49.5989 34.9048 49.5989C34.6418 49.5989 34.5116 49.4672 34.5116 49.2113C34.5116 49.1176 34.469 49.11 34.4389 49.11C34.3763 49.11 34.3588 49.1784 34.3538 49.2012L34.3438 49.5735V49.6191C34.3438 49.69 34.3488 49.7483 34.4289 49.7914C34.5324 49.83 34.6443 49.8497 34.7545 49.8496C35.516 49.8496 35.8616 49.3481 35.8616 48.8871C35.8616 48.3324 35.3181 48.0386 34.7971 47.9449L34.8347 47.6258H35.3807C35.6136 47.6258 35.6136 47.6942 35.6136 47.76C35.6136 47.8411 35.6788 47.8461 35.6888 47.8461C35.7083 47.8468 35.7273 47.8398 35.7418 47.8266C35.7563 47.8134 35.7651 47.7949 35.7664 47.7752L35.8115 47.3497C35.8115 47.3142 35.8115 47.2383 35.7364 47.2383L35.6963 47.2459Z" fill="white"/>
<path d="M21.4414 46.406C22.2079 47.3077 23.077 48.2018 24.0714 49.0781L32.1441 40.8971L40.2143 49.0756C41.2087 48.2018 42.0804 47.3077 42.8443 46.406L32.1441 35.5655L21.4414 46.406Z" fill="white"/>
<path d="M32.1417 33.1972C26.7501 33.1961 21.3696 33.6903 16.0664 34.6738C16.1165 34.9879 16.1741 35.302 16.2367 35.6211C21.3839 34.6637 26.7015 34.1597 32.1417 34.1597C37.582 34.1597 42.8995 34.6637 48.0468 35.6211C48.1119 35.302 48.167 34.9879 48.2171 34.6738C42.9139 33.6903 37.5334 33.1961 32.1417 33.1972Z" fill="white"/>
<path d="M38.674 24.8322C38.6734 23.9656 38.5039 23.1075 38.1752 22.3071C37.8465 21.5067 37.3651 20.7796 36.7585 20.1673C36.1519 19.5551 35.432 19.0697 34.6398 18.7389C33.8476 18.408 32.9988 18.2383 32.1417 18.2393C31.2846 18.2383 30.4358 18.408 29.6436 18.7389C28.8514 19.0697 28.1315 19.5551 27.5249 20.1673C26.9183 20.7796 26.4369 21.5067 26.1082 22.3071C25.7795 23.1075 25.61 23.9656 25.6094 24.8322C25.6097 25.6991 25.779 26.5575 26.1075 27.3582C26.436 28.1589 26.9173 28.8863 27.524 29.4988C28.1306 30.1113 28.8507 30.5969 29.643 30.9279C30.4354 31.2589 31.2844 31.4287 32.1417 31.4277C32.9991 31.4291 33.8483 31.2594 34.6408 30.9286C35.4332 30.5977 36.1534 30.1121 36.7601 29.4995C37.3669 28.887 37.8482 28.1594 38.1766 27.3586C38.505 26.5577 38.674 25.6992 38.674 24.8322ZM32.1392 28.2136C31.2527 28.2136 30.4025 27.8575 29.7757 27.2236C29.1488 26.5897 28.7966 25.73 28.7966 24.8335C28.7966 23.9371 29.1488 23.0773 29.7757 22.4434C30.4025 21.8096 31.2527 21.4534 32.1392 21.4534C33.0257 21.4534 33.8759 21.8096 34.5027 22.4434C35.1296 23.0773 35.4818 23.9371 35.4818 24.8335C35.4818 25.73 35.1296 26.5897 34.5027 27.2236C33.8759 27.8575 33.0257 28.2136 32.1392 28.2136Z" fill="white"/>
<path d="M139.574 23.8484C140.057 24.1878 140.505 24.55 140.929 24.9375C141.603 25.5049 142.216 26.0747 142.775 26.6446C143.331 27.2196 143.802 27.7768 144.185 28.3188L141.911 31.3532C141.462 30.6432 140.971 29.9614 140.44 29.3117C139.804 28.5139 139.238 27.8452 138.737 27.3006C138.412 26.9511 138.071 26.6066 137.703 26.2647C137.336 25.9263 136.951 25.61 136.548 25.3174C135.834 26.3483 135.055 27.3184 134.199 28.2352C133.334 29.1571 132.36 29.9685 131.301 30.6516L129.492 28.8153C130.429 27.9642 131.381 26.903 132.34 25.6416C133.304 24.3752 134.053 23.0657 134.587 21.7081C134.99 20.6722 135.336 19.6515 135.629 18.6308C135.914 17.6126 136.07 16.5665 136.09 15.4977C136.127 14.6036 135.987 13.9754 135.671 13.6208C135.356 13.2612 135.07 13.0737 134.822 13.0509V12.4659H140.728C140.728 14.6618 140.483 16.6121 139.977 18.3116C139.523 19.9101 138.886 21.4495 138.078 22.8986C138.597 23.1924 139.098 23.509 139.574 23.8484ZM149.836 11.8276V37.5586H146.001V22.083H141.966V18.9094H146.001V14.1021C146.01 13.6903 145.917 13.2828 145.73 12.9167C145.545 12.5773 145.33 12.4076 145.082 12.4076V11.8276H149.836ZM155.599 37.5586H151.506V11.8251H155.599V37.5586Z" fill="#5A5758"/>
<path d="M160.066 32.1707H184.043V35.4015H160.066V32.1707ZM162.31 28.6671V14.8318C162.311 14.4459 162.224 14.0649 162.054 13.719C161.877 13.3744 161.664 13.1949 161.394 13.1949V12.6133H166.435V17.6822H177.703V12.6133H181.764V28.6671H162.31ZM177.703 20.8053H166.435V25.4361H177.703V20.8053Z" fill="#5A5758"/>
<path d="M189.202 27.621V20.7722C189.202 20.3821 189.111 20.0073 188.944 19.6375C188.766 19.2652 188.553 19.0828 188.277 19.0828V18.5306H198.857V15.7876H189.089V12.5253H202.945V21.5903H193.292V24.3587H205.162V27.621H189.202ZM192.097 30.5084C192.037 30.3622 191.94 30.2343 191.816 30.1372C191.692 30.04 191.546 29.9768 191.391 29.9537V29.3712H196.408V34.4393H211.764V37.6484H192.312V31.3518C192.304 31.0579 192.23 30.7697 192.097 30.5084ZM211.161 20.4201V30.5084H207.07V14.1286C207.07 13.6853 206.98 13.2877 206.81 12.9483C206.634 12.6064 206.417 12.4367 206.146 12.4367V11.8541H211.161V17.1882H215.166V20.4201H211.161Z" fill="#5A5758"/>
<path d="M217.703 32.1719H241.68V35.4028H217.703V32.1719ZM225.087 24.9708C223.524 26.159 221.842 27.177 220.067 28.0077L218.363 26.1338C220.593 24.8343 222.545 23.183 224.214 21.1799C225.882 19.184 227.068 17.2382 227.757 15.3499C227.861 15.0885 227.907 14.8071 227.893 14.5255C227.878 14.244 227.803 13.9691 227.672 13.7202C227.402 13.2176 227.082 12.9592 226.72 12.9592V12.3848H233.607C233.126 14.6931 232.197 16.882 230.874 18.825C232.734 19.4424 234.566 20.3183 236.383 21.4455C238.201 22.5727 239.734 23.8148 240.984 25.1789L237.789 28.058C236.737 26.4559 235.426 25.0434 233.912 23.8794C232.474 22.761 230.936 21.7803 229.319 20.9501C228.066 22.4483 226.642 23.7973 225.087 24.9708Z" fill="#5A5758"/>
<path d="M248.844 26.3223C250.014 25.3877 250.988 24.3289 251.755 23.1461C252.391 22.1507 252.889 21.0515 253.255 19.8484C253.621 18.6427 253.854 17.2953 253.951 15.8161H245.844V12.6095H258.999C258.999 14.694 258.761 16.6621 258.29 18.5186C257.846 20.3112 257.143 22.0276 256.203 23.6121C255.15 25.3559 253.777 26.8801 252.158 28.1028C250.525 29.349 248.611 30.2785 246.422 30.9042L244.629 28.9184C246.123 28.2107 247.537 27.3401 248.844 26.3223ZM263.585 37.6719V14.1292C263.594 13.717 263.498 13.3094 263.304 12.9464C263.124 12.607 262.898 12.4348 262.63 12.4348V11.8547H267.65V37.6719H263.585Z" fill="#5A5758"/>
<path d="M275.124 21.976V14.5371C275.124 14.1521 275.054 13.7722 274.911 13.4024C274.768 13.0275 274.528 12.8451 274.207 12.8451V12.2626H295.322V15.4996H279.226V18.7694H295.87V21.976H287.449V23.9592H297.974V27.1683H272.762V23.9592H283.347V21.976H275.124ZM291.632 37.6973V31.8059H275.094V28.569H295.725V37.6973H291.632Z" fill="#5A5758"/>
<path d="M320.74 15.4417V14.1297C320.74 13.6864 320.652 13.2888 320.477 12.9469C320.304 12.6075 320.086 12.4352 319.818 12.4352V11.8552H324.838V27.7234H320.74V24.5421H315.979V25.801H301.699V14.7426C301.699 14.3171 301.606 13.9321 301.424 13.5902C301.238 13.2483 301.025 13.0786 300.777 13.0786V12.4935H305.792V16.2041H311.856V12.4935H315.979V15.4417H320.74ZM322.543 29.4432C324.512 30.436 325.496 31.6417 325.496 33.06C325.496 34.481 324.512 35.6891 322.543 36.682C320.567 37.6723 318.178 38.1738 315.367 38.1738C312.582 38.1738 310.203 37.6723 308.229 36.682C306.26 35.6891 305.276 34.481 305.276 33.06C305.276 31.6417 306.26 30.436 308.229 29.4432C310.203 28.4554 312.582 27.9589 315.367 27.9589C318.178 27.9589 320.567 28.4554 322.543 29.4432ZM311.856 19.4081H305.794V22.564H311.856V19.4081ZM319.413 34.6405C320.505 34.1922 321.056 33.6629 321.056 33.06C321.056 32.4598 320.505 31.938 319.413 31.4872C318.318 31.0388 316.968 30.816 315.367 30.816C313.789 30.816 312.464 31.0388 311.372 31.4872C310.29 31.938 309.747 32.4598 309.747 33.06C309.747 33.6629 310.29 34.1922 311.372 34.6405C312.464 35.0888 313.789 35.3092 315.367 35.3092C316.968 35.3092 318.318 35.0888 319.413 34.6405ZM315.979 21.2773H320.74V18.7116H315.979V21.2773Z" fill="#5A5758"/>
<path d="M339.259 26.7023H330.262V23.4653H348.346V26.7023H343.326V31.6615H339.259V26.7023ZM333.185 20.9097C331.679 19.8307 330.918 18.5237 330.918 16.9889C330.918 15.4514 331.679 14.1394 333.185 13.063C334.695 11.9865 336.498 11.4445 338.595 11.4445C340.711 11.4445 342.515 11.9865 344.005 13.063C345.495 14.1394 346.239 15.4514 346.239 16.9889C346.239 18.5237 345.495 19.8307 344.005 20.9097C342.515 21.9912 340.711 22.5307 338.595 22.5307C336.498 22.5307 334.695 21.9912 333.185 20.9097ZM354.893 34.4907V37.6973H333.919V31.6033C333.929 31.1912 333.83 30.7837 333.633 30.423C333.443 30.081 333.23 29.9113 332.999 29.9113V29.3288H338.019V34.4907H354.893ZM336.068 15.074C335.366 15.6135 335.018 16.2467 335.018 16.9889C335.018 17.7462 335.366 18.392 336.068 18.9265C336.799 19.4704 337.688 19.7528 338.595 19.7294C339.579 19.7294 340.413 19.4634 341.105 18.9265C341.798 18.392 342.144 17.7462 342.144 16.9889C342.144 16.2467 341.798 15.6135 341.105 15.074C340.413 14.5421 339.579 14.2762 338.595 14.2762C337.616 14.2762 336.777 14.5421 336.068 15.074ZM350.397 22.0039H346.703V18.8277H350.397V14.1293C350.404 13.718 350.309 13.3116 350.122 12.9465C349.936 12.6071 349.718 12.4348 349.47 12.4348V11.8548H354.487V31.8388H350.397V22.0039Z" fill="#5A5758"/>
<path d="M80.6518 26.7023H71.6523V23.4653H89.739V26.7023H84.722V31.6615H80.6518V26.7023ZM74.5804 20.9097C73.0675 19.8307 72.3161 18.5237 72.3161 16.9889C72.3161 15.4514 73.0675 14.1394 74.5804 13.063C76.0932 11.9865 77.8916 11.4445 79.9881 11.4445C82.1046 11.4445 83.9055 11.9865 85.4008 13.063C86.8886 14.1394 87.63 15.4514 87.63 16.9889C87.63 18.5237 86.8886 19.8307 85.4008 20.9097C83.9055 21.9912 82.1046 22.5307 79.9881 22.5307C77.8916 22.5307 76.0932 21.9912 74.5804 20.9097ZM96.2913 34.4907V37.6973H75.3168V31.6033C75.3259 31.1903 75.2247 30.7826 75.0237 30.423C74.8333 30.081 74.6229 29.9113 74.395 29.9113V29.3288H79.412V34.4907H96.2913ZM77.4633 15.074C76.7645 15.6135 76.4088 16.2467 76.4088 16.9889C76.4088 17.7462 76.7645 18.392 77.4633 18.9265C78.1928 19.4714 79.0815 19.754 79.9881 19.7294C80.9699 19.7294 81.8065 19.4634 82.5003 18.9265C83.1891 18.392 83.5398 17.7462 83.5398 16.9889C83.5398 16.2467 83.1891 15.6135 82.5003 15.074C81.8065 14.5421 80.9699 14.2762 79.9881 14.2762C79.0062 14.2762 78.1671 14.5421 77.4633 15.074ZM91.7903 22.0039H88.0934V18.8277H91.7903V14.1293C91.7982 13.7176 91.7026 13.3106 91.5123 12.9465C91.332 12.6071 91.1141 12.4348 90.8636 12.4348V11.8548H95.8881V31.8388H91.7903V22.0039Z" fill="#5A5758"/>
<path d="M115.418 29.8561V37.6445H111.235V29.8561H100.73V26.647H125.918V29.8561H115.418ZM116.17 16.8728C115.964 17.2989 115.712 17.7007 115.418 18.0708C116.63 18.1671 118.266 18.4989 120.337 19.0586C122.328 19.5764 124.121 20.6842 125.485 22.2399L122.577 25.1298C122.474 25.0234 121.572 24.2965 119.862 22.9085C118.148 21.5307 116.009 20.6265 113.427 20.1984C112.37 21.1153 111.005 21.9486 109.329 22.7034C107.656 23.4658 105.637 24.0762 103.27 24.5422L101.427 22.6477C105.347 21.6371 107.952 20.2643 109.229 18.5343C110.509 16.8044 111.165 15.8495 111.208 15.6773H102.551V12.4657H124.42V15.6773H116.661C116.515 16.0833 116.351 16.4822 116.17 16.8728Z" fill="#5A5758"/>
<path d="M305.671 45.9165C302.197 45.9165 300.609 48.4392 300.609 50.777C300.609 53.1199 302.16 55.6426 305.551 55.6426C308.544 55.6426 310.626 53.5505 310.626 50.5617C310.626 47.6946 308.73 45.9165 305.671 45.9165ZM306.057 54.8143C303.956 54.8143 302.485 53.0008 302.485 50.4047C302.485 47.1956 304.269 46.722 305.323 46.722C307.332 46.722 308.73 48.4797 308.73 51.01C308.73 54.437 306.861 54.8143 306.057 54.8143Z" fill="#5A5758"/>
<path d="M91.4189 45.9165C87.9474 45.9165 86.3594 48.4392 86.3594 50.777C86.3594 53.1199 87.9123 55.6426 91.3012 55.6426C94.2918 55.6426 96.3758 53.5505 96.3758 50.5617C96.3758 47.6946 94.4772 45.9165 91.4189 45.9165ZM91.8047 54.8143C89.7032 54.8143 88.2329 53.0008 88.2329 50.4047C88.2329 47.1956 90.0163 46.722 91.0758 46.722C93.0821 46.722 94.4772 48.4797 94.4772 51.01C94.4772 54.437 92.6087 54.8143 91.8047 54.8143Z" fill="#5A5758"/>
<path d="M133.306 48.2898H132.782C132.782 48.2898 132.845 47.7047 132.494 47.2412C132.314 47.0107 131.986 46.6941 131.274 46.6941C130.475 46.6941 129.959 47.1399 129.959 47.8314C129.959 48.305 130.147 48.6976 131.192 49.4929L131.525 49.7437C133.005 50.9088 133.531 51.737 133.531 52.9249C133.531 53.4568 133.378 54.4446 132.354 55.131C131.76 55.4876 131.078 55.6651 130.388 55.6426C129.671 55.6426 128.679 55.4957 128.309 55.1234V52.7907H128.787C128.787 52.7907 128.887 53.4821 128.952 53.6923C129.243 54.6852 130.082 54.8397 130.558 54.8397C131.53 54.8397 132.051 54.1812 132.051 53.5632C132.051 52.9806 131.863 52.4462 130.919 51.7117L130.367 51.2811C129.098 50.273 128.554 49.3891 128.554 48.3152C128.554 46.9044 129.719 45.9166 131.434 45.9166C132.862 45.9166 133.306 46.2712 133.306 46.2712V48.2898Z" fill="#5A5758"/>
<path d="M317.224 48.2898H316.708C316.708 48.2898 316.77 47.7047 316.42 47.2412C316.239 47.0107 315.906 46.6941 315.2 46.6941C314.403 46.6941 313.885 47.1399 313.885 47.8313C313.885 48.305 314.07 48.6976 315.11 49.4929L315.445 49.7436C316.928 50.9087 317.454 51.737 317.454 52.9249C317.454 53.4567 317.299 54.4445 316.274 55.1309C315.741 55.4678 315.102 55.6426 314.313 55.6426C313.592 55.6426 312.6 55.4957 312.234 55.1233V52.7906H312.71C312.71 52.7906 312.808 53.4821 312.873 53.6923C313.166 54.6852 314.003 54.8397 314.479 54.8397C315.455 54.8397 315.976 54.1811 315.976 53.5631C315.976 52.9806 315.784 52.4461 314.842 51.7116L314.293 51.281C313.016 50.273 312.477 49.389 312.477 48.3151C312.477 46.9043 313.642 45.9165 315.36 45.9165C316.788 45.9165 317.224 46.2711 317.224 46.2711V48.2898Z" fill="#5A5758"/>
<path d="M249.955 48.2899H249.437C249.437 48.2899 249.5 47.7049 249.149 47.2414C248.969 47.0109 248.64 46.6943 247.929 46.6943C247.128 46.6943 246.612 47.14 246.612 47.8315C246.612 48.3051 246.799 48.6977 247.839 49.493L248.177 49.7438C249.657 50.9089 250.183 51.7371 250.183 52.925C250.183 53.4569 250.031 54.4447 249.011 55.1311C248.416 55.487 247.733 55.6645 247.042 55.6428C246.324 55.6428 245.332 55.4958 244.961 55.1235V52.7908H245.437C245.437 52.7908 245.54 53.4822 245.607 53.6925C245.895 54.6853 246.734 54.8398 247.21 54.8398C248.185 54.8398 248.703 54.1813 248.703 53.5633C248.703 52.9807 248.515 52.4463 247.571 51.7118L247.025 51.2812C245.747 50.2732 245.209 49.3892 245.209 48.3153C245.209 46.9045 246.371 45.9167 248.084 45.9167C249.52 45.9167 249.955 46.2713 249.955 46.2713V48.2899Z" fill="#5A5758"/>
<path d="M139.689 46.9205C140.513 46.9205 140.543 47.3764 140.543 48.007H140.969V46.0922H135V46.5152H135.273C135.681 46.5152 136.2 46.6469 136.2 47.3434V54.0782C136.2 54.985 135.942 55.0458 135.383 55.0432H135.18V55.4688H141.279V53.402H140.839C140.839 54.3188 140.475 54.6405 139.852 54.6405H137.941V50.8919H139.721C140.338 50.8919 140.345 51.0996 140.345 51.7404H140.778V49.2076H140.345C140.345 49.856 140.338 50.0586 139.721 50.0586H137.941V46.9205H139.689Z" fill="#5A5758"/>
<path d="M156.078 46.9205C156.9 46.9205 156.932 47.3764 156.932 48.007H157.36V46.0922H151.387V46.5152H151.665C152.073 46.5152 152.586 46.6469 152.586 47.3434V54.0782C152.586 54.985 152.331 55.0458 151.767 55.0432H151.57V55.4688H157.664V53.402H157.223C157.223 54.3188 156.865 54.6405 156.238 54.6405H154.33V50.8919H156.108C156.722 50.8919 156.734 51.0996 156.734 51.7404H157.168V49.2076H156.734C156.734 49.856 156.722 50.0586 156.108 50.0586H154.33V46.9205H156.078Z" fill="#5A5758"/>
<path d="M201.713 46.9205C202.535 46.9205 202.565 47.3764 202.565 48.007H202.988V46.0922H197.02V46.5152H197.298C197.703 46.5152 198.222 46.6469 198.222 47.3434V54.0782C198.222 54.985 197.964 55.0458 197.405 55.0432H197.202V55.4688H203.299V53.402H202.858C202.858 54.3188 202.5 54.6405 201.876 54.6405H199.963V50.8919H201.743C202.357 50.8919 202.37 51.0996 202.37 51.7404H202.8V49.2076H202.37C202.37 49.856 202.357 50.0586 201.743 50.0586H199.963V46.9205H201.713Z" fill="#5A5758"/>
<path d="M330.606 55.0438C330.138 55.0438 329.717 54.9704 329.717 54.4207V47.1541C329.717 46.5462 330 46.5107 330.739 46.5107V46.0928H326.957V46.5158H327.17C327.473 46.5234 327.999 46.5994 327.999 47.1541V54.4207C327.999 55.0261 327.686 55.0438 326.957 55.0438V55.4668H331.035V55.0438H330.606Z" fill="#5A5758"/>
<path d="M243.005 55.0438C242.529 55.0438 242.118 54.9704 242.118 54.4207V47.1541C242.118 46.5462 242.401 46.5107 243.135 46.5107V46.0928H239.348V46.5158H239.568C239.871 46.5234 240.39 46.5994 240.39 47.1541V54.4207C240.39 55.0261 240.082 55.0438 239.348 55.0438V55.4668H243.435V55.0438H243.005Z" fill="#5A5758"/>
<path d="M264.022 55.0438C263.543 55.0438 263.13 54.9704 263.13 54.4207V47.1541C263.13 46.5462 263.418 46.5107 264.152 46.5107V46.0928H260.367V46.5158H260.585C260.886 46.5234 261.407 46.5994 261.407 47.1541V54.4207C261.407 55.0261 261.096 55.0438 260.367 55.0438V55.4668H264.452V55.0438H264.022Z" fill="#5A5758"/>
<path d="M352.264 54.636C351.793 54.636 351.38 54.5651 351.38 54.0155V47.1515C351.38 46.5462 351.665 46.5107 352.394 46.5107V46.0903H348.617V46.5158H348.83C349.136 46.5208 349.654 46.5994 349.654 47.1515V54.4182C349.654 55.0261 349.341 55.0413 348.617 55.0413V55.4668H354.999V53.4H354.551C354.551 54.3169 354.195 54.6411 353.569 54.6411L352.264 54.636Z" fill="#5A5758"/>
<path d="M299.182 55.0438C298.711 55.0438 298.293 54.9704 298.293 54.4207V47.1541C298.293 46.5462 298.581 46.5107 299.315 46.5107V46.0928H295.525V46.5158H295.745C296.046 46.5234 296.567 46.5994 296.567 47.1541V49.963H292.061V47.1541C292.061 46.5462 292.347 46.5107 293.083 46.5107V46.0928H289.301V46.5158H289.511C289.812 46.5234 290.333 46.5994 290.333 47.1541V54.4207C290.333 55.0261 290.027 55.0438 289.301 55.0438V55.4668H293.378V55.0438H292.948C292.479 55.0438 292.061 54.9704 292.061 54.4207V50.8419H296.567V54.4207C296.567 55.0261 296.264 55.0438 295.525 55.0438V55.4668H299.61V55.0438H299.182Z" fill="#5A5758"/>
<path d="M228.442 55.0438C227.966 55.0438 227.55 54.9704 227.55 54.4207V47.1541C227.55 46.5462 227.833 46.5107 228.575 46.5107V46.0928H224.788V46.5158H225.003C225.306 46.5234 225.827 46.5994 225.827 47.1541V49.963H221.316V47.1541C221.316 46.5462 221.602 46.5107 222.335 46.5107V46.0928H218.551V46.5158H218.771C219.074 46.5234 219.593 46.5994 219.593 47.1541V54.4207C219.593 55.0261 219.285 55.0438 218.551 55.0438V55.4668H222.636V55.0438H222.205C221.737 55.0438 221.316 54.9704 221.316 54.4207V50.8419H225.827V54.4207C225.827 55.0261 225.516 55.0438 224.788 55.0438V55.4668H228.868V55.0438H228.442Z" fill="#5A5758"/>
<path d="M179.869 55.0438V55.4668H176.438V55.0438C176.979 55.0438 177.53 55.0869 177.53 54.0433V46.0928H178.106C179.195 47.2148 184.372 52.6275 184.54 52.8023V47.4377C184.54 46.4854 183.791 46.5107 183.328 46.5107V46.0928H186.489V46.5107C185.988 46.5107 185.495 46.4854 185.495 47.4377V55.4668H184.868L178.491 48.8764L178.496 54.0433C178.496 54.945 179.007 55.0438 179.528 55.0438H179.869Z" fill="#5A5758"/>
<path d="M277.456 55.0438V55.4668H274.027V55.0438C274.568 55.0438 275.122 55.0869 275.122 54.0433V46.0928H275.701C276.785 47.2148 281.96 52.6275 282.13 52.8023V47.4377C282.13 46.4854 281.381 46.5107 280.918 46.5107V46.0928H284.081V46.5107C283.58 46.5107 283.087 46.4854 283.087 47.4377V55.4668H282.466L276.081 48.8764L276.084 54.0433C276.084 54.945 276.6 55.0438 277.121 55.0438H277.456Z" fill="#5A5758"/>
<path d="M101.055 55.0438V55.4668H97.6289V55.0438C98.1649 55.0438 98.721 55.0869 98.721 54.0433V46.0928H99.2996C100.382 47.2148 105.559 52.6275 105.727 52.8023V47.4377C105.727 46.4854 104.978 46.5107 104.517 46.5107V46.0928H107.675V46.5107C107.177 46.5107 106.681 46.4854 106.681 47.4377V55.4668H106.062L99.6803 48.8764L99.6828 54.0433C99.6828 54.945 100.194 55.0438 100.717 55.0438H101.055Z" fill="#5A5758"/>
<path d="M333.988 55.0438V55.4668H338.07V55.0438H337.73C337.221 55.0438 336.753 54.9957 336.753 54.4131V46.9362H338.579C339.4 46.9362 339.496 47.3845 339.583 48.0127H340.077L339.804 46.0928H331.986L331.711 48.0127H332.207C332.29 47.3845 332.387 46.9362 333.209 46.9362H335.03V54.4309C335.03 54.9628 334.792 55.0438 334.223 55.0438H333.988Z" fill="#5A5758"/>
<path d="M168.19 55.0236C168.002 54.983 167.531 54.8868 166.895 54.2181C166.286 53.5722 165.585 52.6756 164.703 51.5536L164.34 51.0951C165.422 50.1884 165.893 49.3652 165.893 48.3597C165.893 47.4479 165.337 46.8425 165.044 46.6424C164.353 46.1612 163.508 46.1055 162.772 46.0903H159.198V46.5158H159.401C159.699 46.5158 160.235 46.6019 160.235 47.1642V54.4309C160.235 54.9653 159.992 55.0438 159.418 55.0438H159.195V55.4668H163.281V55.0438H162.882C162.406 55.0438 161.968 54.978 161.968 54.4131V51.6777H163.06L164.277 53.4051C164.984 54.3853 165.437 54.94 165.958 55.2186C166.296 55.3984 166.612 55.4668 167.286 55.4668H168.52V55.0565C168.41 55.0475 168.3 55.0365 168.19 55.0236ZM163.626 50.7203C163.426 50.8621 163.291 50.9102 162.82 50.9102H161.968V46.8552H162.547C163.188 46.8552 164.287 47.2858 164.287 48.9676C164.287 50.0541 163.874 50.5354 163.626 50.7203Z" fill="#5A5758"/>
<path d="M239.359 55.0236C239.171 54.983 238.703 54.8868 238.062 54.2181C237.451 53.5722 236.754 52.6756 235.87 51.5536L235.512 51.0951C236.591 50.1884 237.062 49.3652 237.062 48.3597C237.064 48.0262 236.988 47.697 236.84 47.3987C236.693 47.1004 236.478 46.8413 236.213 46.6424C235.519 46.1612 234.678 46.1055 233.939 46.0903H230.37V46.5158H230.57C230.868 46.5158 231.407 46.6019 231.407 47.1642V54.4309C231.407 54.9653 231.164 55.0438 230.59 55.0438H230.367V55.4668H234.447V55.0438H234.054C233.576 55.0438 233.135 54.978 233.135 54.4131V51.6777H234.227L235.444 53.4051C236.153 54.3853 236.609 54.94 237.125 55.2186C237.466 55.3984 237.781 55.4668 238.46 55.4668H239.687V55.0565C239.578 55.0477 239.468 55.0367 239.359 55.0236ZM234.793 50.7203C234.595 50.8621 234.46 50.9102 233.989 50.9102H233.135V46.8552H233.716C234.357 46.8552 235.462 47.2858 235.462 48.9676C235.462 50.0541 235.046 50.5354 234.793 50.7203Z" fill="#5A5758"/>
<path d="M151.568 46.5157V46.0927H148.475V46.5157H148.828C148.946 46.5157 149.053 46.5891 149.068 46.6955C149.099 46.85 149.036 47.0881 148.966 47.3236L146.779 52.9668C146.689 52.7338 144.565 47.0248 144.565 47.0248C144.55 46.9614 144.465 46.7968 144.51 46.6854C144.532 46.6347 144.568 46.5917 144.614 46.5615C144.66 46.5314 144.713 46.5154 144.768 46.5157H145.116V46.0927H141.609V46.5106C141.609 46.5106 142.088 46.5081 142.338 46.6778C142.539 46.8069 142.734 47.121 142.887 47.5237L146.213 55.5781H146.599L150.268 47.2325C150.268 47.2325 150.594 46.5055 151.235 46.5157H151.568Z" fill="#5A5758"/>
<path d="M319.059 46.0922V46.5152H319.277C319.577 46.5228 320.098 46.5988 320.098 47.1535V54.4202C320.098 55.0255 319.79 55.0432 319.059 55.0432V55.4688H323.141V55.0432H322.715C322.235 55.0432 321.821 54.9723 321.821 54.4202V46.8141H322.235C322.678 46.8141 323.061 46.9686 323.387 47.2649C323.84 47.6803 324.076 48.273 324.076 49.0354C324.076 50.3676 323.109 50.9704 322.212 50.9704H322.117V51.4061H322.212C324.351 51.4061 325.686 50.2587 325.686 48.4123C325.686 46.9356 324.609 46.0922 322.726 46.0922H319.059Z" fill="#5A5758"/>
<path d="M166.637 55.0438V55.4668H169.875V55.0438C169.084 55.0438 168.969 54.8539 169.166 54.3042L169.9 52.3413H172.595L173.357 54.3726C173.5 54.7449 173.688 55.0438 173.264 55.0438V55.4668H176.666V55.0387C176.12 55.0387 175.541 55.0767 175.183 54.3042C175.183 54.3042 172.32 47.1667 171.904 46.1156H171.238L167.944 54.3979C167.679 54.983 167.333 55.0438 166.957 55.0438H166.637ZM172.282 51.5105H170.211L171.263 48.6687L172.282 51.5105Z" fill="#5A5758"/>
<path d="M338.586 55.0438V55.4668H341.827V55.0438C341.033 55.0438 340.915 54.8539 341.116 54.3042L341.852 52.3413H344.545L345.309 54.3726C345.449 54.7449 345.639 55.0438 345.216 55.0438V55.4668H348.617V55.0387C348.064 55.0387 347.49 55.0767 347.135 54.3042C347.135 54.3042 344.269 47.1667 343.858 46.1156H343.187L339.893 54.3979C339.628 54.983 339.277 55.0438 338.907 55.0438H338.586ZM344.232 51.5105H342.168L343.215 48.6687L344.232 51.5105Z" fill="#5A5758"/>
<path d="M253.423 55.0438V55.4668H257.508V55.0438H257.165C256.661 55.0438 256.19 54.9957 256.19 54.4131V46.9362H258.011C258.833 46.9362 258.931 47.3845 259.021 48.0127H259.509L259.239 46.0928H251.421L251.148 48.0127H251.637C251.727 47.3845 251.825 46.9362 252.646 46.9362H254.465V54.4309C254.465 54.9628 254.227 55.0438 253.661 55.0438H253.423Z" fill="#5A5758"/>
<path d="M264.16 55.0438V55.4668H267.401V55.0438C266.602 55.0438 266.49 54.8539 266.692 54.3042L267.426 52.3413H270.119L270.878 54.3726C271.018 54.7449 271.208 55.0438 270.785 55.0438V55.4668H274.187V55.0387C273.641 55.0387 273.059 55.0767 272.706 54.3042C272.706 54.3042 269.843 47.1667 269.43 46.1156H268.761L265.468 54.3979C265.2 54.983 264.851 55.0438 264.478 55.0438H264.16ZM269.801 51.5105H267.734L268.784 48.6687L269.801 51.5105Z" fill="#5A5758"/>
<path d="M192.698 45.9496C191.053 45.9496 189.708 46.3244 188.751 47.216C187.787 48.105 187.301 49.26 187.301 50.653C187.301 52.2133 187.819 53.4619 188.849 54.3662C189.868 55.2704 191.311 55.6934 192.987 55.6934C194.827 55.6756 195.905 55.1792 195.905 55.1792V53.1656H195.514C195.514 53.1656 195.379 54.7284 192.984 54.7284C192.017 54.6904 191.243 54.4345 190.457 53.6823C189.605 52.8566 189.172 51.8637 189.172 50.5315C189.172 49.1105 189.512 48.0189 190.274 47.3806C190.86 46.8892 191.566 46.7044 192.523 46.7044C195.541 46.7044 195.464 48.4444 195.464 48.4444H195.849V46.4333C195.849 46.4333 194.329 45.9496 192.698 45.9496Z" fill="#5A5758"/>
<path d="M214.048 45.9496C212.404 45.9496 211.062 46.3244 210.103 47.216C209.136 48.105 208.652 49.26 208.652 50.653C208.652 52.2133 209.173 53.4619 210.2 54.3662C211.225 55.2704 212.665 55.6934 214.341 55.6934C216.179 55.6756 217.259 55.1792 217.259 55.1792L217.254 53.1656H216.868C216.868 53.1656 216.73 54.7284 214.336 54.7284C213.369 54.6904 212.595 54.4345 211.808 53.6823C210.957 52.8566 210.526 51.8637 210.526 50.5315C210.526 49.1105 210.862 48.0189 211.625 47.3806C212.214 46.8892 212.92 46.7044 213.877 46.7044C216.893 46.7044 216.81 48.4444 216.81 48.4444H217.206V46.4333C217.206 46.4333 215.683 45.9496 214.048 45.9496Z" fill="#5A5758"/>
<path d="M120.319 46.5155C120.625 46.5231 121.156 46.6067 121.156 47.1639V51.1911C121.156 52.4778 121.103 53.5137 120.485 54.1368C120.053 54.55 119.479 54.7764 118.884 54.7675C118.359 54.7966 117.843 54.6258 117.436 54.2888C116.973 53.9038 116.53 53.2807 116.53 51.3684V47.1639C116.53 46.556 116.818 46.5104 117.554 46.5104V46.0925H113.77V46.5155H113.987C114.291 46.5231 114.809 46.6143 114.809 47.1639V51.4495C114.809 53.0021 115.16 54.0532 115.909 54.7345C116.858 55.5957 118.11 55.5957 118.644 55.5957C119.355 55.5957 120.294 55.4969 121.209 54.7016C122.238 53.805 122.378 52.3765 122.378 50.9682V47.1639C122.378 46.5586 122.671 46.5104 123.405 46.5104V46.0925H120.109V46.5155H120.319Z" fill="#5A5758"/>
<path d="M112.034 47.1788C112.034 46.5785 112.244 46.5354 112.973 46.5354V46.0922H109.376V46.5354H109.582C109.877 46.5379 110.293 46.6241 110.311 47.1534V52.9637C110.311 54.3771 110.303 55.3471 110.235 55.8182C109.992 57.533 108.733 58.1991 108.555 58.3004L108.79 58.7031C110.681 57.8268 111.443 56.8415 111.756 55.9525C111.949 55.3927 112.034 54.6607 112.034 53.716V47.1788Z" fill="#5A5758"/>
<path d="M82.4628 55.7422H82.0596L79.3695 49.1898L76.8848 55.7422H76.4064L73.6236 47.3661C73.3957 46.6595 73.1728 46.5151 72.8146 46.5151L72.4414 46.51V46.0921H76.196V46.51H75.7176C75.7176 46.51 75.2191 46.434 75.4446 47.1863L77.0576 52.7686L79.5072 46.1352H79.913L82.578 52.6496L84.1861 47.1964C84.3739 46.4999 84.0959 46.51 83.4021 46.51V46.0845H86.4854V46.51C85.7465 46.51 85.5987 46.5354 85.3257 47.2648L82.4628 55.7422Z" fill="#5A5758"/>
</g>
<defs>
<clipPath id="clip0_740_1517">
<rect width="355" height="65" fill="white"/>
</clipPath>
</defs>
</svg>
