<svg width="170" height="50" viewBox="0 0 170 50" fill="none" xmlns="http://www.w3.org/2000/svg">
<g clip-path="url(#clip0_740_1617)">
<path d="M75.92 3.71754C76.7762 3.71754 77.4229 4.24751 77.4229 4.9537C77.4229 5.65572 76.7762 6.18691 75.92 6.18691C75.0653 6.18691 74.4199 5.65572 74.4199 4.9537C74.4199 4.24751 75.0653 3.71754 75.92 3.71754ZM72.8678 4.9716C72.8678 6.46314 74.1774 7.58638 75.92 7.58638C77.6629 7.58638 78.9746 6.46357 78.9746 4.9712C78.9746 4.5629 78.8476 4.17126 78.6359 3.81504H80.6809V2.42933H76.7812V1.24194H75.0633V2.42933H71.1636V3.81504L73.2107 3.81796C72.992 4.1721 72.8678 4.5633 72.8678 4.9716ZM73.367 12.2256V10.3928H71.649V12.7289C71.6492 13.0671 71.7836 13.3914 72.0227 13.6307C72.2619 13.8699 72.5862 14.0046 72.9244 14.005H80.5772V12.6176H73.7566C73.6531 12.6167 73.5542 12.5751 73.4813 12.5018C73.4084 12.4285 73.3673 12.329 73.367 12.2256ZM70.6335 9.46414H75.54V11.5873H77.2608V9.46414H81.211V8.103H70.634L70.6335 9.46414ZM104.85 2.06437H103.135V10.634H104.85V6.20151H106.654V4.81621H104.85L104.85 2.06437ZM102.708 8.3834V6.99851H97.424C97.3203 6.99818 97.221 6.95677 97.1478 6.88337C97.0747 6.80996 97.0336 6.71053 97.0336 6.60687V4.06127C97.0336 3.84629 97.2102 3.67047 97.424 3.67047H101.558V2.28476H96.5931C96.2551 2.28487 95.9308 2.41924 95.6918 2.65832C95.4528 2.89739 95.3185 3.2216 95.3185 3.55965V7.10892C95.3185 7.2763 95.3514 7.44205 95.4154 7.5967C95.4795 7.75135 95.5734 7.89187 95.6917 8.01023C95.8101 8.12859 95.9506 8.22246 96.1053 8.28649C96.26 8.35052 96.4257 8.38346 96.5931 8.3834H102.708ZM90.8338 3.8442V6.94478H92.5488V3.33966C92.5485 3.00168 92.4141 2.67763 92.1752 2.43856C91.9363 2.19949 91.6122 2.06492 91.2742 2.06437H83.4406V3.453H90.4434C90.5468 3.45409 90.6457 3.49574 90.7187 3.56898C90.7917 3.64223 90.833 3.74079 90.8338 3.8442ZM88.1325 9.24166C89.3992 9.24166 90.3534 10.1232 90.3534 11.2902C90.3534 12.4593 89.3992 13.3409 88.1325 13.3409C86.8737 13.3409 85.9186 12.4593 85.9186 11.2902C85.9186 10.1237 86.8737 9.24166 88.1325 9.24166ZM87.7116 4.89496H85.9928V7.37432H82.8031V8.73669H85.4544C84.6803 9.3383 84.219 10.227 84.219 11.2906C84.219 13.285 85.8286 14.6787 88.1325 14.6787C90.445 14.6787 92.0526 13.2851 92.0526 11.2902C92.0526 10.227 91.5946 9.3383 90.8163 8.73669H93.453V7.37432H87.7116V4.89496ZM98.1828 12.2256V9.78953H96.4669V12.7289C96.467 13.0668 96.6012 13.391 96.8399 13.6302C97.0787 13.8694 97.4027 14.0042 97.7407 14.005H104.981V12.6176H98.5786C98.4742 12.618 98.3739 12.5771 98.2997 12.5037C98.2255 12.4302 98.1834 12.33 98.1828 12.2256ZM61.3274 7.98178C61.2233 7.98166 61.1235 7.94028 61.0498 7.86671C60.9762 7.79314 60.9347 7.6934 60.9345 7.5893V5.3745H66.5405V7.5893C66.5401 7.69297 66.4988 7.79228 66.4256 7.86574C66.3525 7.9392 66.2533 7.9809 66.1496 7.98178H61.3274ZM64.5967 9.36749H66.9847C67.3228 9.36737 67.647 9.23301 67.886 8.99393C68.125 8.75485 68.2593 8.43064 68.2593 8.0926V2.06394H66.5405V3.98795H60.9345V2.06437H59.2194V8.09216C59.2194 8.25962 59.2523 8.42545 59.3164 8.58017C59.3804 8.7349 59.4743 8.8755 59.5927 8.99393C59.7111 9.11236 59.8517 9.2063 60.0064 9.2704C60.1612 9.33449 60.327 9.36749 60.4945 9.36749H62.88V12.1368H58.449V13.5217H69.0297V12.1368H64.5967V9.36749ZM147.306 24.06H143.854V22.1197H147.306V24.06ZM143.888 30.1886C145.751 30.1886 147.152 31.4872 147.152 33.2092C147.152 34.9265 145.75 36.2272 143.888 36.2272C142.025 36.2272 140.621 34.9265 140.621 33.2088C140.621 31.4872 142.025 30.1886 143.888 30.1886ZM141.175 25.5773C141.175 25.926 140.895 26.2014 140.55 26.2014H137.458C137.111 26.2014 136.829 25.9265 136.829 25.5773V22.7926H141.176L141.175 25.5773ZM147.306 20.0111H143.854V18.2155H141.176V20.649H136.829V18.2159H134.153V26.3081C134.153 27.4309 135.07 28.3471 136.193 28.3471H141.63C139.347 29.0566 137.884 30.8585 137.884 33.2092C137.884 36.2172 140.409 38.4004 143.888 38.4004C147.424 38.4004 149.891 36.2626 149.891 33.2092C149.891 30.1507 147.424 28.013 143.888 28.013C143.516 28.0145 143.145 28.0415 142.776 28.0938C143.415 27.7492 143.854 27.0822 143.854 26.3081V26.1673H147.306V28.7891H149.982V18.2167H147.306V20.0111ZM100.92 27.6834C100.576 27.6834 100.295 27.4009 100.295 27.0572V23.5117H108.839V27.0572C108.839 27.4009 108.558 27.6834 108.211 27.6834H100.92ZM105.939 29.8969H109.546C110.087 29.8969 110.606 29.6824 110.988 29.3003C111.371 28.9182 111.586 28.3999 111.587 27.8592V18.2171H108.839V21.296H100.295V18.2171H97.5503V27.8584C97.5502 28.1261 97.6029 28.3911 97.7054 28.6385C97.8078 28.8858 97.958 29.1104 98.1473 29.2997C98.3367 29.4889 98.5615 29.639 98.8088 29.7414C99.0562 29.8437 99.3214 29.8963 99.5891 29.8961H103.192V34.3295H96.1044V36.5481H113.027V34.3295H105.939V29.8969ZM157.053 22.1914C157.053 20.8086 158.171 19.6887 159.546 19.6887C160.918 19.6887 162.034 20.8086 162.034 22.1914C162.034 23.5712 160.918 24.6941 159.546 24.6941C158.171 24.6941 157.053 23.5712 157.053 22.1914ZM158.467 31.7055H161.25V27.7909H166.36V25.5761H163.039C164.058 24.7303 164.697 23.5292 164.697 22.1914C164.697 19.5624 162.484 17.5793 159.546 17.5793C156.608 17.5793 154.39 19.5624 154.39 22.1914C154.39 23.5292 155.029 24.7303 156.05 25.5761H153.482V27.7909H158.467V31.7055ZM158.371 35.099C158.024 35.099 157.742 34.8215 157.742 34.4728V29.8415H154.993V35.2786C154.993 36.4027 155.913 37.3176 157.034 37.3176H169.998V35.099H158.371ZM163.741 31.7372H167.047V32.9346H169.794V18.2167H167.047V29.5187H163.741V31.7372ZM123.421 20.859C124.789 20.859 125.825 21.7106 125.825 22.8363C125.825 23.9625 124.789 24.8141 123.421 24.8141C122.056 24.8141 121.024 23.9625 121.024 22.8363C121.024 21.7106 122.056 20.859 123.421 20.859ZM118.536 22.8696C118.536 25.2532 120.635 27.0493 123.421 27.0493C126.207 27.0493 128.305 25.2536 128.305 22.8696C128.305 22.2155 128.104 21.5835 127.763 21.0223H131.034V18.8046H124.794V16.9014H122.046V18.8046H115.808V21.0223L119.08 21.0244C118.736 21.5848 118.536 22.2155 118.536 22.8701L118.536 22.8696ZM119.336 34.4728V31.546H116.589V35.2782C116.589 35.8185 116.804 36.3366 117.186 36.7189C117.568 37.1011 118.086 37.3163 118.626 37.3171H130.87V35.0986H119.961C119.614 35.0986 119.336 34.8211 119.336 34.4724V34.4728ZM114.96 30.0528H122.816V33.45H125.56V30.0528H131.885V27.8751H114.96V30.0528ZM77.92 24.9282L78.9159 27.0697C82.8764 25.9019 84.9398 24.1137 85.8286 23.1226L85.9107 23.0288L85.9928 23.1226C86.8816 24.1141 88.9429 25.9015 92.9034 27.0668L93.8956 24.927C90.0858 23.7467 87.912 22.1676 87.442 20.229L87.4174 20.1207V20.0936H93.3214V17.8759H78.5175V20.0936H84.4157L84.3773 20.229C83.9077 22.1676 81.7397 23.7467 77.92 24.9282ZM77.4317 31.3897H84.5598V37.3226H87.3074V31.3897H94.3606V29.1733H77.4317V31.3897ZM67.4505 35.8923C65.5834 35.8923 64.1788 34.5945 64.1788 32.8675C64.1788 31.1456 65.583 29.847 67.4505 29.847C69.3139 29.847 70.7131 31.1456 70.7131 32.8675C70.7131 34.5945 69.3139 35.8923 67.4505 35.8923ZM73.7428 17.8759H71.0715V26.7385H68.6639V20.319C68.6639 19.1912 67.7459 18.2775 66.6209 18.2775H58.4498V20.4557H65.2859C65.6305 20.4557 65.913 20.7398 65.913 21.0856V26.7385H63.1129V22.9655H60.4349V26.7385H57.9531V28.8458H63.4791C62.2016 29.7678 61.4436 31.176 61.4436 32.8671C61.4436 35.9235 63.9125 38.0633 67.4509 38.0633C70.9836 38.0633 73.4532 35.9235 73.4532 32.8671C73.4532 31.2148 72.7307 29.837 71.5061 28.9154H73.7436V24.4962H76.4387V22.2785H73.7432V17.8755" fill="#739741"/>
<path d="M24.6347 6.00643H24.6305C19.6083 8.0775 14.7269 11.4485 10.5117 16.0939C15.0248 16.1689 19.9745 16.7626 24.6268 18.3945L24.6309 18.3937C29.2853 16.763 34.2367 16.1689 38.7418 16.0939C34.5288 11.4535 29.6515 8.07792 24.6347 6.00643Z" fill="#B5DC17"/>
<path d="M24.6288 18.3965V18.3936L24.625 18.3944L24.6288 18.3965Z" fill="#619035"/>
<path d="M32.6784 2.56866C31.5379 2.75197 29.8691 2.30117 28.9704 1.56665C28.9704 1.56665 27.0486 0.00011158 24.6273 0.00011158C22.2072 0.00011158 20.2842 1.56665 20.2842 1.56665C19.3842 2.30117 17.7171 2.75197 16.5741 2.56866C16.5741 2.56866 14.9699 2.31866 13.2461 2.86653C16.8066 3.42982 20.7172 4.3935 24.6273 6.00586H24.6315C28.5416 4.3935 32.4484 3.42982 36.0089 2.86653C34.2889 2.31866 32.6784 2.56866 32.6784 2.56866Z" fill="#73AB1D"/>
<path d="M13.248 2.86721C12.8265 3.00085 12.4201 3.1782 12.0355 3.39634L11.8413 3.52425L11.833 3.53592C9.88627 4.77998 9.05124 6.95187 9.05124 6.95187C8.63539 8.03511 7.4166 9.26625 6.33907 9.6858C6.33907 9.6858 4.53817 10.4507 3.12438 12.8547C2.55561 13.8205 1.74934 15.8361 1.37891 17.3418L1.62308 17.3106C3.04396 16.5773 7.42035 16.049 10.5105 16.094C14.7256 11.4486 19.6066 8.07803 24.6292 6.00654C20.7191 4.39418 16.8086 3.4305 13.248 2.86721Z" fill="#80CC28"/>
<path d="M1.62423 17.3112L1.59964 17.3199C1.08504 21.5345 1.98382 25.2442 3.96138 28.3281C4.80016 23.441 7.48608 19.4351 10.5116 16.0946C7.4215 16.0496 3.04511 16.5779 1.62423 17.3112Z" fill="#B5DC17"/>
<path d="M9.8703 33.9922C10.5337 25.7321 18.5264 19.6151 24.6262 18.3948C19.9735 16.7629 15.0242 16.1691 10.5112 16.0942C7.48564 19.4347 4.79972 23.4402 3.96094 28.3277C5.40348 30.5638 7.41105 32.4711 9.8703 33.9922Z" fill="#DBEA3E"/>
<path d="M47.5148 17.3168L47.6977 17.3418C47.3273 15.8253 46.7023 13.8205 46.1339 12.8547C44.7197 10.4507 42.9213 9.6858 42.9213 9.6858C41.8421 9.26625 40.6212 8.03469 40.205 6.95187C40.205 6.95187 39.3758 4.77998 37.4266 3.53592L37.4166 3.52425L37.2224 3.39634C36.8249 3.16886 36.4149 2.99803 36.0103 2.86721C32.4497 3.4305 28.5434 4.39418 24.6328 6.00654C29.6496 8.07761 34.5269 11.4536 38.7399 16.094C41.88 16.049 46.2631 16.7744 47.5152 17.3164" fill="#80CC28"/>
<path d="M47.5182 17.3201L47.5131 17.3172C46.2614 16.7756 41.8784 16.0498 38.7383 16.0948C41.9342 19.6236 44.5485 23.3675 45.1118 28.4004C47.1277 25.3069 48.0415 21.5677 47.5182 17.3201Z" fill="#B5DC17"/>
<path d="M45.1137 28.3996C44.5504 23.3667 41.9357 19.6229 38.7402 16.094C34.2351 16.169 29.2836 16.7627 24.6289 18.3938V18.3963C32.6458 20.5761 38.8185 26.2427 39.3586 33.9258C41.7445 32.4309 43.6974 30.5752 45.1137 28.3996Z" fill="#DBEA3E"/>
<mask id="mask0_740_1617" style="mask-type:luminance" maskUnits="userSpaceOnUse" x="0" y="15" width="22" height="34">
<path d="M0.00757518 26.2132C0.13356 31.458 1.75282 36.3044 4.43269 40.3199C4.77061 40.8443 5.13294 41.3599 5.50894 41.8628C6.24532 42.8276 7.05399 43.7221 7.91635 44.5081C12.1754 48.422 18.2608 49.8487 20.9729 45.3743C21.3958 44.682 21.804 43.4242 21.7698 41.9409C21.6712 37.7927 17.6885 37.3288 14.953 36.3845C5.59097 33.1464 -0.120343 25.7718 1.83487 15.8231C1.83487 15.9832 -0.136966 20.1119 0.00757518 26.2132Z" fill="white"/>
</mask>
<g mask="url(#mask0_740_1617)">
<path d="M0.00757518 26.2132C0.13356 31.458 1.75282 36.3044 4.43269 40.3199C4.77061 40.8443 5.13294 41.3599 5.50894 41.8628C6.24532 42.8276 7.05399 43.7221 7.91635 44.5081C12.1754 48.422 18.2608 49.8487 20.9729 45.3743C21.3958 44.682 21.804 43.4242 21.7698 41.9409C21.6712 37.7927 17.6885 37.3288 14.953 36.3845C5.59097 33.1464 -0.120343 25.7718 1.83487 15.8231C1.83487 15.9832 -0.136966 20.1119 0.00757518 26.2132Z" fill="url(#paint0_radial_740_1617)"/>
</g>
<mask id="mask1_740_1617" style="mask-type:luminance" maskUnits="userSpaceOnUse" x="27" y="15" width="23" height="34">
<path d="M49.1158 26.2132C48.9898 31.458 47.3686 36.3044 44.6887 40.3199C44.3528 40.8443 43.9885 41.3599 43.6135 41.8628C42.8791 42.8276 42.0665 43.7221 41.2041 44.5081C36.946 48.422 30.8616 49.8487 28.1495 45.3743C27.7237 44.682 27.3155 43.4242 27.3497 41.9409C27.4532 37.7927 31.432 37.3288 34.1675 36.3845C43.5314 33.1464 49.2418 25.7718 47.2885 15.8231C47.2885 15.9832 49.2613 20.1119 49.1158 26.2132Z" fill="white"/>
</mask>
<g mask="url(#mask1_740_1617)">
<path d="M49.1158 26.2132C48.9898 31.458 47.3686 36.3044 44.6887 40.3199C44.3528 40.8443 43.9885 41.3599 43.6135 41.8628C42.8791 42.8276 42.0665 43.7221 41.2041 44.5081C36.946 48.422 30.8616 49.8487 28.1495 45.3743C27.7237 44.682 27.3155 43.4242 27.3497 41.9409C27.4532 37.7927 31.432 37.3288 34.1675 36.3845C43.5314 33.1464 49.2418 25.7718 47.2885 15.8231C47.2885 15.9832 49.2613 20.1119 49.1158 26.2132Z" fill="url(#paint1_radial_740_1617)"/>
</g>
<path d="M61.5004 47.7473H60.6799L58.8203 42.1203H59.9591L61.0883 45.7871L62.2192 42.1207H63.3659L61.5004 47.7469M67.0493 47.7473V45.3917H65.143V47.7469H64.0426V42.1203H65.143V44.4201H67.0493V42.1203H68.1464V47.7473H67.0493ZM71.007 47.7948C70.1523 47.7948 69.5036 47.6123 68.9527 47.052L69.6619 46.3399C70.0194 46.6966 70.4999 46.8149 71.0224 46.8149C71.6691 46.8149 72.0174 46.5703 72.0174 46.1191C72.0174 45.9221 71.9632 45.7558 71.8424 45.6446C71.7332 45.5421 71.6066 45.4863 71.3449 45.4475L70.6678 45.3525C70.1836 45.2817 69.8282 45.13 69.5761 44.8859C69.3073 44.6176 69.1719 44.2543 69.1719 43.7798C69.1719 42.7765 69.9161 42.0736 71.1307 42.0736C71.9074 42.0736 72.4678 42.2632 72.9516 42.729L72.2549 43.4164C71.8974 43.0765 71.4707 43.0298 71.1007 43.0298C70.5144 43.0298 70.2303 43.354 70.2303 43.7406C70.2303 43.8822 70.2782 44.0322 70.3965 44.1426C70.5078 44.2464 70.6903 44.3335 70.919 44.3655L71.5828 44.4593C72.0966 44.5305 72.4208 44.6742 72.6591 44.8946C72.9583 45.1788 73.092 45.5892 73.092 46.087C73.092 47.1778 72.1816 47.7952 71.007 47.7952M79.4281 47.1545C78.9956 47.5969 78.473 47.7948 77.8393 47.7948C77.2405 47.7948 76.7338 47.589 76.3234 47.1782C76.0882 46.9491 75.9279 46.6543 75.8634 46.3325C75.8009 46.0166 75.7696 45.55 75.7696 44.9338C75.7696 44.3176 75.8009 43.8506 75.8634 43.5356C75.9263 43.213 76.0869 42.9174 76.3234 42.689C76.7338 42.2786 77.2405 42.0736 77.8393 42.0736C79.1214 42.0736 79.8081 42.8948 79.9564 43.8752H78.8531C78.7172 43.3302 78.3851 43.0531 77.8393 43.0531C77.5484 43.0531 77.3109 43.1556 77.138 43.3539C76.9322 43.6135 76.8684 43.8197 76.8684 44.9338C76.8684 46.04 76.9142 46.262 77.138 46.5216C77.3043 46.7199 77.5405 46.8145 77.8393 46.8145C78.1634 46.8145 78.4235 46.712 78.6214 46.4978C78.7893 46.3087 78.8755 46.0558 78.8755 45.7471V45.5346H77.8393V44.6176H79.9664V45.4384C79.9664 46.262 79.816 46.7432 79.4281 47.1545ZM85.0458 47.7473H84.2011L83.3386 45.1634L82.4782 47.7469H81.6315L80.3706 43.6293H81.4598L82.1236 46.1741L82.9615 43.6293H83.7107L84.5574 46.1741L85.2216 43.6293H86.3025L85.0458 47.7469M88.9963 46.0079H88.1817C87.8117 46.0079 87.6054 46.1829 87.6054 46.4745C87.6054 46.7599 87.7971 46.9495 88.1992 46.9495C88.4834 46.9495 88.6642 46.9257 88.8475 46.752C88.958 46.6495 88.9963 46.4812 88.9963 46.2295V46.0079ZM89.0213 47.7469V47.3907C88.7442 47.6682 88.4838 47.7865 88.0096 47.7865C87.5429 47.7865 87.2029 47.6682 86.9571 47.4228C86.7362 47.1945 86.62 46.8624 86.62 46.4978C86.62 45.8421 87.0683 45.305 88.0254 45.305H88.9963V45.0996C88.9963 44.6497 88.7755 44.4522 88.2313 44.4522C87.835 44.4522 87.6554 44.5472 87.4412 44.7913L86.7841 44.1518C87.1883 43.7081 87.5829 43.5823 88.2717 43.5823C89.4238 43.5823 90.0247 44.0726 90.0247 45.0363V47.7469H89.0217M93.5248 47.7473V45.2579C93.5248 44.6963 93.1706 44.5072 92.846 44.5072C92.5218 44.5072 92.1593 44.6963 92.1593 45.2579V47.7469H91.131V43.6293H92.1339V44.0089C92.4035 43.7248 92.7827 43.5823 93.1606 43.5823C93.5727 43.5823 93.9065 43.7173 94.1352 43.9456C94.4652 44.2776 94.5531 44.6651 94.5531 45.1155V47.7469H93.5248M97.1832 44.5072C96.5749 44.5072 96.5124 45.0284 96.5124 45.5738C96.5124 46.1195 96.5749 46.6495 97.1832 46.6495C97.7916 46.6495 97.862 46.1191 97.862 45.5733C97.862 45.0284 97.7916 44.5072 97.1832 44.5072ZM97.0807 49.3047C96.4486 49.3047 96.014 49.1768 95.5865 48.7664L96.2261 48.1181C96.4565 48.3398 96.6853 48.4348 97.0328 48.4348C97.6491 48.4348 97.862 48.0002 97.862 47.5811V47.1624C97.5932 47.4628 97.2849 47.5732 96.8832 47.5732C96.479 47.5732 96.1324 47.4398 95.9028 47.2099C95.5161 46.8224 95.484 46.2933 95.484 45.5733C95.484 44.8547 95.5161 44.3335 95.9028 43.9456C96.1324 43.7173 96.4891 43.5823 96.8911 43.5823C97.3245 43.5823 97.6112 43.7014 97.8933 44.0168V43.6293H98.8904V47.5969C98.8904 48.5848 98.1862 49.3047 97.0807 49.3047ZM100.027 42.9261V42.0886H101.08V42.9261H100.027ZM99.8687 49.288H99.285V48.4189H99.6808C99.9412 48.4189 100.045 48.2919 100.045 48.0481V43.6293H101.072V48.1115C101.072 48.6952 100.714 49.288 99.8687 49.288ZM104.588 47.7473V47.3673C104.319 47.6523 103.938 47.7948 103.56 47.7948C103.147 47.7948 102.818 47.6603 102.587 47.4307C102.255 47.0986 102.17 46.712 102.17 46.262V43.6289H103.195V46.1191C103.195 46.6799 103.553 46.8703 103.877 46.8703C104.201 46.8703 104.563 46.6799 104.563 46.1191V43.6293H105.591V47.7469H104.588M111.659 47.7473V45.3917H109.755V47.7469H108.654V42.1203H109.755V44.4201H111.659V42.1203H112.758V47.7473H111.659ZM116.037 44.6888C115.919 44.5705 115.761 44.5072 115.555 44.5072C115.348 44.5072 115.197 44.5705 115.079 44.6888C114.866 44.9026 114.845 45.258 114.845 45.6838C114.845 46.1116 114.866 46.4745 115.079 46.6878C115.197 46.8066 115.348 46.8703 115.555 46.8703C115.761 46.8703 115.919 46.8066 116.037 46.6874C116.249 46.4749 116.273 46.1116 116.273 45.6838C116.273 45.258 116.249 44.9026 116.037 44.6888ZM116.836 47.2882C116.58 47.5565 116.163 47.7948 115.555 47.7948C114.946 47.7948 114.534 47.5565 114.282 47.2882C113.912 46.9016 113.814 46.4345 113.814 45.6838C113.814 44.9417 113.912 44.4755 114.282 44.0881C114.534 43.8197 114.946 43.5823 115.555 43.5823C116.163 43.5823 116.58 43.8197 116.836 44.0881C117.206 44.4755 117.302 44.9417 117.302 45.6838C117.302 46.4345 117.206 46.902 116.836 47.2882ZM119.63 47.7948C118.985 47.7948 118.399 47.7227 117.877 47.2024L118.549 46.5303C118.889 46.8703 119.333 46.9178 119.647 46.9178C120.002 46.9178 120.376 46.7991 120.376 46.4903C120.376 46.2854 120.264 46.1429 119.939 46.1112L119.293 46.0479C118.549 45.9771 118.091 45.6525 118.091 44.8946C118.091 44.0414 118.843 43.5823 119.678 43.5823C120.319 43.5823 120.859 43.6927 121.252 44.0647L120.619 44.7043C120.382 44.4905 120.018 44.428 119.665 44.428C119.253 44.428 119.077 44.6176 119.077 44.8238C119.077 44.973 119.141 45.1475 119.506 45.1788L120.154 45.2413C120.968 45.3213 121.377 45.7558 121.377 46.4512C121.377 47.3594 120.604 47.7948 119.63 47.7948ZM123.962 44.5072C123.346 44.5072 123.266 45.013 123.266 45.6838C123.266 46.3566 123.346 46.8703 123.962 46.8703C124.579 46.8703 124.659 46.3566 124.659 45.6838C124.659 45.013 124.578 44.5072 123.962 44.5072ZM125.265 47.4228C125.038 47.6523 124.665 47.7948 124.262 47.7948C123.842 47.7948 123.535 47.6836 123.266 47.3828V49.2559H122.239V43.6293H123.234V44.0168C123.52 43.7014 123.827 43.5823 124.262 43.5823C124.665 43.5823 125.038 43.7248 125.265 43.9531C125.677 44.3655 125.685 45.0676 125.685 45.6838C125.685 46.3008 125.677 47.012 125.265 47.4228ZM126.663 47.7473V43.6293H127.689V47.7469L126.663 47.7473ZM126.648 42.9261V42.0886H127.699V42.9261H126.648ZM130.126 47.7473C129.288 47.7473 128.931 47.1545 128.931 46.5703V44.5305H128.497V43.7485H128.931V42.5307H129.958V43.7485H130.688V44.5305H129.958V46.507C129.958 46.7432 130.07 46.877 130.314 46.877H130.688V47.7469H130.126M133.682 46.0079H132.868C132.494 46.0079 132.29 46.1829 132.29 46.4745C132.29 46.7599 132.479 46.9495 132.881 46.9495C133.168 46.9495 133.348 46.9257 133.53 46.752C133.641 46.6495 133.682 46.4812 133.682 46.2295V46.0079ZM133.706 47.7469V47.3907C133.427 47.6682 133.168 47.7865 132.692 47.7865C132.226 47.7865 131.886 47.6682 131.641 47.4228C131.419 47.1945 131.303 46.8624 131.303 46.4978C131.303 45.8421 131.753 45.305 132.708 45.305H133.683V45.0996C133.683 44.6497 133.46 44.4522 132.914 44.4522C132.517 44.4522 132.338 44.5472 132.124 44.7913L131.469 44.1518C131.869 43.7081 132.267 43.5823 132.954 43.5823C134.108 43.5823 134.707 44.0726 134.707 45.0363V47.7469H133.706ZM136.975 47.7473C136.13 47.7473 135.775 47.1545 135.775 46.5703V42.1207H136.801V46.507C136.801 46.752 136.905 46.877 137.164 46.877H137.561V47.7469H136.975" fill="#739741"/>
</g>
<defs>
<radialGradient id="paint0_radial_740_1617" cx="0" cy="0" r="1" gradientUnits="userSpaceOnUse" gradientTransform="translate(18.6964 24.0326) rotate(-1.36887) scale(24.9172 25.9538)">
<stop stop-color="#CCE31C"/>
<stop offset="0.00549451" stop-color="#CCE31C"/>
<stop offset="0.38" stop-color="#8BC01D"/>
<stop offset="1" stop-color="#4E6C0E"/>
</radialGradient>
<radialGradient id="paint1_radial_740_1617" cx="0" cy="0" r="1" gradientUnits="userSpaceOnUse" gradientTransform="translate(30.4241 24.0326) rotate(-178.631) scale(24.9163 25.953)">
<stop stop-color="#CCE31C"/>
<stop offset="0.00549451" stop-color="#CCE31C"/>
<stop offset="0.38" stop-color="#8BC01D"/>
<stop offset="1" stop-color="#4E6C0E"/>
</radialGradient>
<clipPath id="clip0_740_1617">
<rect width="170" height="49.3039" fill="white"/>
</clipPath>
</defs>
</svg>
