<svg width="32" height="32" viewBox="0 0 32 32" fill="none" xmlns="http://www.w3.org/2000/svg">
<path d="M5.5 28C4.57174 28 3.6815 27.6313 3.02513 26.9749C2.36875 26.3185 2 25.4283 2 24.5V19.5C2 19.1022 2.15804 18.7206 2.43934 18.4393C2.72064 18.158 3.10218 18 3.5 18C3.89782 18 4.27936 18.158 4.56066 18.4393C4.84196 18.7206 5 19.1022 5 19.5V24.5C5 24.776 5.224 25 5.5 25H26.5C26.6326 25 26.7598 24.9473 26.8536 24.8536C26.9473 24.7598 27 24.6326 27 24.5V19.5C27 19.1022 27.158 18.7206 27.4393 18.4393C27.7206 18.158 28.1022 18 28.5 18C28.8978 18 29.2794 18.158 29.5607 18.4393C29.842 18.7206 30 19.1022 30 19.5V24.5C30 25.4283 29.6313 26.3185 28.9749 26.9749C28.3185 27.6313 27.4283 28 26.5 28H5.5Z" fill="white"/>
<path d="M14.4991 15.378V4C14.4991 3.60218 14.6571 3.22064 14.9384 2.93934C15.2197 2.65804 15.6012 2.5 15.9991 2.5C16.3969 2.5 16.7784 2.65804 17.0597 2.93934C17.341 3.22064 17.4991 3.60218 17.4991 4V15.378L21.4391 11.44C21.5783 11.3008 21.7435 11.1904 21.9254 11.115C22.1073 11.0397 22.3022 11.0009 22.4991 11.0009C22.6959 11.0009 22.8909 11.0397 23.0727 11.115C23.2546 11.1904 23.4199 11.3008 23.5591 11.44C23.6983 11.5792 23.8087 11.7445 23.884 11.9263C23.9594 12.1082 23.9981 12.3031 23.9981 12.5C23.9981 12.6969 23.9594 12.8918 23.884 13.0737C23.8087 13.2555 23.6983 13.4208 23.5591 13.56L17.0591 20.06C16.9199 20.1993 16.7547 20.3099 16.5728 20.3853C16.3909 20.4607 16.196 20.4995 15.9991 20.4995C15.8022 20.4995 15.6072 20.4607 15.4253 20.3853C15.2434 20.3099 15.0782 20.1993 14.9391 20.06L8.43907 13.56C8.29986 13.4208 8.18945 13.2555 8.11411 13.0737C8.03877 12.8918 8 12.6969 8 12.5C8 12.3031 8.03877 12.1082 8.11411 11.9263C8.18945 11.7445 8.29986 11.5792 8.43907 11.44C8.57827 11.3008 8.74352 11.1904 8.9254 11.115C9.10727 11.0397 9.30221 11.0009 9.49907 11.0009C9.69593 11.0009 9.89086 11.0397 10.0727 11.115C10.2546 11.1904 10.4199 11.3008 10.5591 11.44L14.4991 15.378Z" fill="white"/>
</svg>
